<svg width="169" height="140" viewBox="0 0 169 140" fill="none" xmlns="http://www.w3.org/2000/svg">
<path d="M30.8321 69.0318C30.8031 69.1019 27.7579 76.3105 23.6122 83.009L30.8321 69.0318ZM30.8321 69.0318C31.2786 67.9675 32.1298 67.1241 33.1985 66.687M30.8321 69.0318L33.1985 66.687M33.1985 66.687C34.2672 66.25 35.4658 66.2552 36.5306 66.7014M33.1985 66.687L36.5306 66.7014M36.5306 66.7014C37.5955 67.1476 38.4394 67.9984 38.8767 69.0665M36.5306 66.7014L38.8767 69.0665M38.8767 69.0665C39.3139 70.1345 39.3088 71.3325 38.8623 72.3967L38.8767 69.0665ZM13.8816 102.18H13.8816C16.9173 102.18 20.0212 100.716 23.1315 97.8305C25.7032 95.4542 28.3975 91.9951 31.1403 87.5506L31.1406 87.5501C34.0872 82.6965 36.6938 77.6447 38.9417 72.431L38.942 72.4302C39.3973 71.3448 39.4026 70.123 38.9567 69.0337C38.5107 67.9444 37.65 67.0768 36.564 66.6217C35.478 66.1666 34.2556 66.1614 33.1658 66.607C32.0759 67.0527 31.2078 67.9129 30.7524 68.9983L30.7523 68.9987C30.7239 69.0672 27.6808 76.2708 23.5387 82.9635C20.7043 87.5424 18.413 90.1805 16.7367 91.6427C15.8985 92.3739 15.2158 92.8095 14.6976 93.0471C14.4385 93.1659 14.222 93.2346 14.0488 93.2665C13.8743 93.2986 13.7494 93.2924 13.6701 93.2679L13.6691 93.2676C11.8587 92.7322 10.6852 91.7729 9.97139 90.2509L9.97138 90.2509C8.83015 87.8191 8.78379 83.8228 9.85898 78.9932C10.426 76.476 11.1995 74.0097 12.1718 71.6195L12.1718 71.6195L12.1726 71.6176C12.5772 70.5503 12.5548 69.3683 12.1102 68.3171C11.6655 67.2659 10.8327 66.4264 9.78488 65.9729C8.73702 65.5194 7.55463 65.4868 6.48336 65.8819C5.41209 66.277 4.53429 67.0694 4.03234 68.0945L4.03225 68.0945L4.03064 68.0982C3.68118 68.9058 2.00546 72.917 0.992139 77.9557C-0.0205942 82.9914 -0.375095 89.0695 1.93461 94.0011C3.72823 97.8417 6.92191 100.531 11.1627 101.783C12.045 102.046 12.9608 102.18 13.8816 102.18Z" fill="black" stroke="black" stroke-width="0.172839"/>
<path d="M39.3649 139.086H39.3655C41.9464 139.086 44.3545 137.885 46.2504 135.603L46.2505 135.603C48.5099 132.87 50.1022 128.46 50.9956 122.507C51.7658 117.385 51.9932 111.282 51.6543 104.86C51.1392 95.0079 49.3862 85.6826 46.7607 78.3259C48.1235 78.3747 49.4881 78.3269 50.8443 78.1828C54.8019 77.7585 58.6196 76.4822 62.0351 74.4427C61.6609 76.1702 61.303 77.9666 60.9788 79.8103C57.9134 97.2205 59.3418 109.87 65.2579 117.372C68.0301 120.889 70.7436 122.021 72.9596 122.145C75.1716 122.269 76.8714 121.389 77.6184 120.911C79.393 119.775 80.7873 117.934 81.8833 115.716C82.9796 113.498 83.7803 110.897 84.3649 108.235C85.5339 102.912 85.8407 97.3324 85.9109 94.0509C86.1156 84.564 84.9191 75.1644 82.6134 67.3875C86.1889 67.7303 89.7963 67.2618 93.1663 66.0162L93.1666 66.0161C101.457 62.9218 107.873 55.3077 112.248 43.4109C112.654 42.3062 112.605 41.0854 112.111 40.0172C111.616 38.9489 110.718 38.1207 109.612 37.7146C108.507 37.3086 107.286 37.358 106.217 37.852C105.148 38.346 104.319 39.2442 103.913 40.3489C100.482 49.6805 95.8501 55.5018 90.1572 57.6643L90.1571 57.6643C85.7184 59.3564 81.4636 58.4259 79.167 57.6402C82.2224 55.0162 85.0459 52.1338 87.6061 49.025L87.6062 49.0248C96.6261 38.025 100.48 25.8565 98.7511 13.7996C98.1884 9.86508 96.909 6.69361 94.9437 4.38134L94.8778 4.43731L94.9437 4.38133C92.6581 1.69282 89.5836 0.37906 86.2928 0.693805C80.3 1.26206 74.857 7.13646 71.3302 16.7506C67.6236 26.8549 66.0197 40.787 66.6751 57.1064C62.3159 64.3918 56.7947 68.4893 50.2512 69.311C49.1168 69.4529 47.9722 69.4952 46.8307 69.4373C52.0417 61.8169 57.7339 50.5868 61.0921 37.3662C63.623 27.3995 64.3183 19.7687 63.1233 14.2923C62.5254 11.5525 61.4538 9.34903 59.8998 7.66277C58.3455 5.97625 56.3129 4.81183 53.801 4.14348C51.0305 3.40111 47.471 4.52302 44.2792 7.10903L44.2791 7.10907C39.4333 11.0418 35.7188 17.872 33.2326 27.3998C30.0759 39.4945 29.0094 55.7435 30.0585 75.7012C29.6223 78.3178 27.6711 90.3754 26.9655 103.112C26.3751 113.748 26.8003 121.876 28.299 127.698C29.7976 133.52 32.3747 137.053 36.1004 138.464C37.1417 138.868 38.248 139.079 39.3649 139.086ZM41.3959 125.231L41.4795 125.252L41.3959 125.231C40.5098 128.618 39.5587 129.802 39.2044 130.148C39.1694 130.127 39.1186 130.093 39.0538 130.04C38.9272 129.937 38.7468 129.763 38.534 129.477C38.1082 128.905 37.5526 127.885 37.0389 126.099C36.0112 122.527 35.1539 115.897 35.8285 103.668C36.3368 94.6679 37.504 85.8268 38.2338 80.834C40.1081 85.9292 41.543 92.3835 42.3054 99.4684L42.3054 99.4685C43.3787 109.323 43.0369 118.96 41.3959 125.231ZM72.2226 111.868L72.2217 111.867C70.1578 109.249 68.8948 105.243 68.4643 100.087C68.034 94.932 68.4363 88.6373 69.6944 81.4505C70.5776 76.5234 71.7127 71.6448 73.095 66.8339C75.7877 74.0971 77.2363 83.7928 77.0258 93.7378L77.0258 93.7379C76.9195 98.9646 76.3322 103.906 75.3669 107.652L75.3669 107.652C74.6004 110.639 73.7615 112.241 73.2341 112.968C72.8637 112.633 72.5251 112.265 72.2226 111.868ZM52.4759 35.1794L52.4759 35.1795C50.1677 44.3085 46.5177 53.0449 41.6452 61.1037C40.567 62.869 39.5348 64.4099 38.5815 65.7347C38.3295 50.9171 39.3697 33.9189 44.1931 22.4948C45.7281 18.8584 47.3627 16.5059 48.7633 15.0295C50.1532 13.5644 51.3084 12.9663 51.9046 12.8266C52.3437 12.9549 52.744 13.1103 53.1064 13.4228C53.4734 13.7393 53.8086 14.2232 54.099 15.0211L54.0992 15.0216C54.8689 17.0928 55.701 22.4844 52.4759 35.1794ZM89.9524 15.0399L89.9524 15.0401C91.3269 24.6178 88.2806 34.0969 80.8887 43.1934C79.1926 45.2689 77.3598 47.2289 75.4026 49.0603C75.4915 34.4746 77.6684 25.2232 79.6581 19.798C80.9967 16.1498 82.4866 13.6128 83.833 11.9708C84.5062 11.1498 85.1426 10.5538 85.7051 10.1544C86.267 9.75557 86.7494 9.55691 87.1179 9.5204H87.1838H87.1935C87.4193 9.5204 87.6736 9.63463 87.9403 9.87488C88.2062 10.1145 88.4774 10.4733 88.7348 10.946C89.2496 11.891 89.7031 13.2789 89.9524 15.0399Z" fill="black" stroke="black" stroke-width="0.172839"/>
<path d="M102.329 110.053L102.33 110.053C104.744 110.972 107.307 111.436 109.89 111.422C118.049 111.42 127.139 107.027 132.395 96.949C134.947 92.0633 136.794 85.0477 138.129 77.2291C148.469 75.0482 158.73 72.3276 166.762 66.4668C167.713 65.7727 168.349 64.7294 168.531 63.5664C168.713 62.4033 168.424 61.2158 167.73 60.2651C167.035 59.3144 165.992 58.6783 164.828 58.4969C163.664 58.3154 162.476 58.6034 161.525 59.2975C155.657 63.5807 147.753 65.9782 139.46 67.8546C142.035 45.9067 141.519 21.8068 141.483 20.2861C141.456 19.1456 140.991 18.0593 140.184 17.2526C139.377 16.4459 138.29 15.9808 137.149 15.9538C136.008 15.9269 134.9 16.3401 134.056 17.1078C133.212 17.8754 132.696 18.9386 132.615 20.0765C131.677 33.3245 129.544 43.5375 126.283 50.4417C123.327 56.6951 120.404 58.1961 118.948 58.5386C116.718 59.0631 114.939 57.6213 114.101 56.1883L114.1 56.188C113.388 54.9818 112.932 53.1116 112.681 50.8272C112.43 48.5454 112.385 45.8602 112.488 43.0312C112.696 37.3731 113.498 31.1476 114.435 26.4378L114.435 26.4367C114.648 25.2889 114.399 24.1036 113.744 23.1375C113.088 22.1715 112.078 21.5024 110.933 21.2755C109.787 21.0485 108.598 21.2818 107.623 21.9248C106.648 22.5678 105.966 23.5688 105.725 24.7109L105.725 24.7109L105.725 24.7128C104.866 29.2573 104.244 33.8433 103.861 38.4523L103.861 38.4525C103.005 49.004 103.844 56.2921 106.454 60.707C109.519 65.901 115.359 68.5063 120.983 67.1846C125.528 66.1166 128.938 62.8512 131.403 59.3185C131.077 63.191 130.703 66.6624 130.294 69.7764C122.095 71.425 114.353 72.9948 107.843 75.8931C99.6975 79.5055 94.8137 84.6965 92.9358 91.7644C91.8301 95.898 92.252 99.8643 94.1534 103.229C95.884 106.292 98.7112 108.649 102.329 110.053ZM101.522 94.0377L101.522 94.0376C102.74 89.4587 106.163 86.4275 111.002 84.1896C115.813 81.9647 122.008 80.5302 128.791 79.1386C127.396 86.0945 125.853 90.3044 124.524 92.8391L124.524 92.8392C121.764 98.1284 117.926 100.485 115.195 101.53L115.195 101.53C111.908 102.793 108.389 102.877 105.543 101.772L105.543 101.772C104.507 101.373 103.175 100.656 102.267 99.4325C101.361 98.2135 100.868 96.4825 101.522 94.0377Z" fill="black" stroke="black" stroke-width="0.172839"/>
<path d="M12.4199 51.6864C15.1566 51.6864 17.3753 49.4691 17.3753 46.7338C17.3753 43.9986 15.1566 41.7813 12.4199 41.7813C9.68323 41.7813 7.46461 43.9986 7.46461 46.7338C7.46461 49.4691 9.68323 51.6864 12.4199 51.6864Z" fill="black" stroke="black" stroke-width="0.172839"/>
</svg>
