<?xml version="1.0" encoding="utf-8"?>
<!-- Generator: Adobe Illustrator 26.1.0, SVG Export Plug-In . SVG Version: 6.00 Build 0)  -->
<svg version="1.1" id="Layer_1" xmlns="http://www.w3.org/2000/svg" xmlns:xlink="http://www.w3.org/1999/xlink" x="0px" y="0px"
	 viewBox="0 0 173.6 142.6" style="enable-background:new 0 0 173.6 142.6;" xml:space="preserve">
<style type="text/css">
	.st0{fill:#010101;stroke:#010101;stroke-width:0.1728;}
</style>
<g>
	<path class="st0" d="M41.7,140.5L41.7,140.5c2.6,0,5-1.2,6.9-3.5h0c2.3-2.7,3.9-7.1,4.7-13.1c0.8-5.1,1-11.2,0.7-17.6
		c-0.5-9.9-2.3-19.2-4.9-26.5c1.4,0,2.7,0,4.1-0.1c4-0.4,7.8-1.7,11.2-3.7c-0.4,1.7-0.7,3.5-1.1,5.4c-3.1,17.4-1.6,30.1,4.3,37.6
		c2.8,3.5,5.5,4.6,7.7,4.8c2.2,0.1,3.9-0.8,4.7-1.2c1.8-1.1,3.2-3,4.3-5.2c1.1-2.2,1.9-4.8,2.5-7.5c1.2-5.3,1.5-10.9,1.5-14.2
		c0.2-9.5-1-18.9-3.3-26.7c3.6,0.3,7.2-0.1,10.6-1.4l0,0c8.3-3.1,14.7-10.7,19.1-22.6c0.4-1.1,0.4-2.3-0.1-3.4
		c-0.5-1.1-1.4-1.9-2.5-2.3c-1.1-0.4-2.3-0.4-3.4,0.1c-1.1,0.5-1.9,1.4-2.3,2.5c-3.4,9.3-8.1,15.2-13.8,17.3h0
		c-4.4,1.7-8.7,0.8-11,0c3.1-2.6,5.9-5.5,8.4-8.6l0,0c9-11,12.9-23.2,11.1-35.2c-0.6-3.9-1.8-7.1-3.8-9.4l-0.1,0.1l0.1-0.1
		c-2.3-2.7-5.4-4-8.7-3.7c-6,0.6-11.4,6.4-15,16.1c-3.7,10.1-5.3,24-4.7,40.4c-4.4,7.3-9.9,11.4-16.4,12.2c-1.1,0.1-2.3,0.2-3.4,0.1
		c5.2-7.6,10.9-18.9,14.3-32.1c2.5-10,3.2-17.6,2-23.1c-0.6-2.7-1.7-4.9-3.2-6.6c-1.6-1.7-3.6-2.9-6.1-3.5c-2.8-0.7-6.3,0.4-9.5,3
		l0,0c-4.8,3.9-8.6,10.8-11,20.3c-3.2,12.1-4.2,28.3-3.2,48.3c-0.4,2.6-2.4,14.7-3.1,27.4c-0.6,10.6-0.2,18.8,1.3,24.6
		c1.5,5.8,4.1,9.4,7.8,10.8C39.5,140.3,40.6,140.5,41.7,140.5z M43.7,126.7L43.7,126.7L43.7,126.7c-0.9,3.4-1.8,4.6-2.2,4.9
		c0,0-0.1-0.1-0.2-0.1c-0.1-0.1-0.3-0.3-0.5-0.6c-0.4-0.6-1-1.6-1.5-3.4c-1-3.6-1.9-10.2-1.2-22.4c0.5-9,1.7-17.8,2.4-22.8
		c1.9,5.1,3.3,11.5,4.1,18.6v0C45.7,110.8,45.4,120.4,43.7,126.7z M74.6,113.3L74.6,113.3c-2.1-2.6-3.3-6.6-3.8-11.8
		c-0.4-5.2,0-11.4,1.2-18.6c0.9-4.9,2-9.8,3.4-14.6c2.7,7.3,4.1,17,3.9,26.9v0c-0.1,5.2-0.7,10.2-1.7,13.9l0,0
		c-0.8,3-1.6,4.6-2.1,5.3C75.2,114.1,74.9,113.7,74.6,113.3z M54.8,36.6L54.8,36.6c-2.3,9.1-6,17.9-10.8,25.9
		c-1.1,1.8-2.1,3.3-3.1,4.6c-0.3-14.8,0.8-31.8,5.6-43.2c1.5-3.6,3.2-6,4.6-7.5c1.4-1.5,2.5-2.1,3.1-2.2c0.4,0.1,0.8,0.3,1.2,0.6
		c0.4,0.3,0.7,0.8,1,1.6l0,0C57.2,18.5,58.1,23.9,54.8,36.6z M92.3,16.5L92.3,16.5c1.4,9.6-1.7,19.1-9.1,28.2
		c-1.7,2.1-3.5,4-5.5,5.9C77.8,35.9,80,26.7,82,21.2c1.3-3.6,2.8-6.2,4.2-7.8c0.7-0.8,1.3-1.4,1.9-1.8c0.6-0.4,1-0.6,1.4-0.6h0.1h0
		c0.2,0,0.5,0.1,0.7,0.4c0.3,0.2,0.5,0.6,0.8,1.1C91.6,13.3,92.1,14.7,92.3,16.5z"/>
	<path class="st0" d="M14.8,67.2c2.7,0,5-2.2,5-5c0-2.7-2.2-5-5-5c-2.7,0-5,2.2-5,5C9.9,65,12.1,67.2,14.8,67.2z"/>
	<path class="st0" d="M104.8,110.2L104.8,110.2c2.4,0.9,5,1.4,7.6,1.4c8.2,0,17.2-4.4,22.5-14.5c2.6-4.9,4.4-11.9,5.7-19.7
		c10.3-2.2,20.6-4.9,28.6-10.8c1-0.7,1.6-1.7,1.8-2.9c0.2-1.2-0.1-2.4-0.8-3.3c-0.7-1-1.7-1.6-2.9-1.8c-1.2-0.2-2.4,0.1-3.3,0.8
		c-5.9,4.3-13.8,6.7-22.1,8.6c2.6-21.9,2.1-46,2-47.6c0-1.1-0.5-2.2-1.3-3c-0.8-0.8-1.9-1.3-3-1.3c-1.1,0-2.2,0.4-3.1,1.2
		c-0.8,0.8-1.4,1.8-1.4,3c-0.9,13.2-3.1,23.5-6.3,30.4c-3,6.3-5.9,7.8-7.3,8.1c-2.2,0.5-4-0.9-4.8-2.4l0,0c-0.7-1.2-1.2-3.1-1.4-5.4
		c-0.3-2.3-0.3-5-0.2-7.8c0.2-5.7,1-11.9,1.9-16.6l0,0c0.2-1.1,0-2.3-0.7-3.3c-0.7-1-1.7-1.6-2.8-1.9c-1.1-0.2-2.3,0-3.3,0.6
		c-1,0.6-1.7,1.6-1.9,2.8l0,0l0,0c-0.9,4.5-1.5,9.1-1.9,13.7v0c-0.9,10.6,0,17.8,2.6,22.3c3.1,5.2,8.9,7.8,14.5,6.5
		c4.5-1.1,8-4.3,10.4-7.9c-0.3,3.9-0.7,7.3-1.1,10.5c-8.2,1.6-15.9,3.2-22.5,6.1c-8.1,3.6-13,8.8-14.9,15.9
		c-1.1,4.1-0.7,8.1,1.2,11.5C98.3,106.5,101.2,108.8,104.8,110.2z M104,94.2L104,94.2c1.2-4.6,4.6-7.6,9.5-9.8
		c4.8-2.2,11-3.7,17.8-5.1c-1.4,7-2.9,11.2-4.3,13.7l0,0c-2.8,5.3-6.6,7.6-9.3,8.7l0,0c-3.3,1.3-6.8,1.3-9.7,0.2l0,0
		c-1-0.4-2.4-1.1-3.3-2.3C103.8,98.4,103.3,96.7,104,94.2z"/>
	<path class="st0" d="M33.2,76.2c0,0.1-3.1,7.3-7.2,14L33.2,76.2z M33.2,76.2c0.4-1.1,1.3-1.9,2.4-2.3 M33.2,76.2l2.4-2.3
		 M35.5,73.8c1.1-0.4,2.3-0.4,3.3,0 M35.5,73.8l3.3,0 M38.9,73.8c1.1,0.4,1.9,1.3,2.3,2.4 M38.9,73.8l2.3,2.4 M41.2,76.2
		c0.4,1.1,0.4,2.3,0,3.3L41.2,76.2z M16.2,109.3L16.2,109.3c3,0,6.1-1.5,9.2-4.3c2.6-2.4,5.3-5.8,8-10.3l0,0
		c2.9-4.9,5.6-9.9,7.8-15.1l0,0c0.5-1.1,0.5-2.3,0-3.4c-0.4-1.1-1.3-2-2.4-2.4c-1.1-0.5-2.3-0.5-3.4,0c-1.1,0.4-2,1.3-2.4,2.4l0,0
		c0,0.1-3.1,7.3-7.2,14c-2.8,4.6-5.1,7.2-6.8,8.7c-0.8,0.7-1.5,1.2-2,1.4c-0.3,0.1-0.5,0.2-0.6,0.2c-0.2,0-0.3,0-0.4,0l0,0
		c-1.8-0.5-3-1.5-3.7-3h0c-1.1-2.4-1.2-6.4-0.1-11.3c0.6-2.5,1.3-5,2.3-7.4v0l0,0c0.4-1.1,0.4-2.2-0.1-3.3c-0.4-1.1-1.3-1.9-2.3-2.3
		c-1-0.5-2.2-0.5-3.3-0.1s-1.9,1.2-2.5,2.2l0,0l0,0c-0.3,0.8-2,4.8-3,9.9c-1,5-1.4,11.1,0.9,16c1.8,3.8,5,6.5,9.2,7.8
		C14.4,109.2,15.3,109.3,16.2,109.3z"/>
</g>
</svg>
