<svg width="24" height="24" viewBox="0 0 24 24" fill="none" xmlns="http://www.w3.org/2000/svg">
<circle cx="12" cy="12" r="12" fill="#EAEBEE"/>
<path d="M12 3C16.9625 3 21 7.03808 21 12C21 16.9619 16.9657 21 12 21C7.03426 21 3 16.9619 3 12C3 7.03808 7.03971 3 12 3ZM19.9938 12C19.9938 7.5925 16.4075 4.00625 12 4.00625C7.59249 4.00625 4.00625 7.5925 4.00625 12C4.00625 16.4075 7.59468 19.9932 12 19.9932C16.4053 19.9932 19.9959 16.4075 19.9959 12H19.9938Z" fill="#AEAEAE"/>
<path d="M17.0864 11.839C17.1118 12.2361 17.0738 12.6347 16.974 13.0199C16.7802 13.7478 16.3824 14.3994 15.7909 14.956C15.0908 15.6146 14.2193 16.0473 13.2 16.246C12.8387 16.3172 12.4714 16.3538 12.1032 16.3551C11.4131 16.3557 10.7295 16.2219 10.0907 15.9611C9.25086 15.6212 8.58567 15.1 8.1142 14.4125C7.65855 13.7478 7.45446 13.0199 7.50849 12.2477C7.52427 12.0848 7.55515 11.9237 7.60071 11.7664C7.61271 11.7206 7.62472 11.6748 7.63563 11.6284C7.68365 11.4265 7.87137 11.3452 7.93303 11.3184C8.11 11.243 8.29867 11.1987 8.49072 11.1875L8.62169 11.1787C8.918 11.1591 9.22522 11.1384 9.52862 11.128C10.531 11.0936 11.5166 11.0909 12.2319 11.1198C13.314 11.1542 14.132 11.2011 14.9233 11.2469H14.932C15.4155 11.2748 15.8935 11.2884 16.4234 11.3015C16.5976 11.3116 16.7652 11.3717 16.9063 11.4745C17.0722 11.5836 17.0826 11.7757 17.0864 11.839ZM15.7724 12.6799C15.8262 12.4877 15.8447 12.2872 15.8269 12.0884L15.5595 12.0791C15.3909 12.0742 15.2163 12.0682 15.0444 12.0606C14.4005 12.03 13.7566 11.9985 13.1127 11.9662L12.4082 11.9318C11.4412 11.9001 10.4585 11.9018 9.48715 11.9356C9.3098 11.9416 9.12917 11.952 8.95401 11.9618C8.92795 12.158 8.93738 12.3572 8.98184 12.55C8.9933 12.6046 9.0064 12.6079 9.04187 12.6112L9.08225 12.6161C9.09862 12.6161 9.11499 12.6204 9.13136 12.621L9.18593 12.6243C9.38728 12.6346 9.59574 12.645 9.79819 12.6395C9.98972 12.6335 10.1834 12.6308 10.3826 12.6308C10.6817 12.6308 10.9911 12.6374 11.3174 12.6499C11.6104 12.6614 11.9073 12.6783 12.1948 12.6946L12.6434 12.7192C13.2278 12.7492 13.8248 12.7448 14.4016 12.7405L14.9102 12.7372C15.1956 12.7372 15.4744 12.7258 15.738 12.7061C15.7457 12.7055 15.7534 12.7043 15.7609 12.7023C15.7609 12.7023 15.7669 12.6941 15.7718 12.6799H15.7724ZM15.7369 13.8259L15.7434 13.8166C15.7342 13.8018 15.7194 13.798 15.6889 13.7969C15.4253 13.7866 15.1546 13.8002 14.8933 13.8133L14.8267 13.8166C14.7126 13.822 14.5986 13.8302 14.4845 13.8379C14.1639 13.868 13.8414 13.8745 13.5198 13.8575C12.9678 13.81 12.4137 13.7918 11.8598 13.8029H11.8478C11.6361 13.7991 11.4833 13.7953 11.3283 13.7849C10.9168 13.7587 10.4552 13.7342 9.97335 13.7342C9.74908 13.7342 9.52043 13.7396 9.29234 13.7522C9.23023 13.7557 9.16843 13.7633 9.10735 13.7751C8.99821 13.7969 8.98675 13.8062 8.97202 13.9186C8.96874 13.9465 8.96711 13.9732 8.96492 14.0032C8.96268 14.0608 8.95575 14.1181 8.94419 14.1745C8.94037 14.1915 8.93928 14.1958 8.96492 14.2248C9.27873 14.578 9.65904 14.8659 10.0841 15.0722C11.0293 15.5328 12.0579 15.6539 13.14 15.4318C13.8748 15.284 14.5607 14.9542 15.135 14.4725C15.3625 14.2846 15.5647 14.068 15.7363 13.828L15.7369 13.8259Z" fill="#AEAEAE"/>
<path d="M16.6864 9.19958C16.6793 9.4315 16.6553 9.62304 16.5773 9.80475C16.3399 10.3553 15.7648 10.5687 15.2251 10.3101C15.0332 10.222 14.8649 10.0898 14.734 9.92425C14.3242 9.39002 14.2068 8.8045 14.4961 8.18351C14.6423 7.8692 14.9201 7.68912 15.2791 7.67166C15.527 7.66047 15.7715 7.73293 15.9732 7.87738C16.4485 8.20643 16.6602 8.6719 16.6864 9.19958Z" fill="#AEAEAE"/>
<path d="M9.94973 9.07242C9.93957 9.37494 9.85182 9.66977 9.6949 9.92861C9.58716 10.1098 9.43455 10.2601 9.2518 10.3652C8.82889 10.6063 8.35524 10.5081 8.06493 10.1163C7.89516 9.88212 7.80506 9.59959 7.80791 9.31034C7.79793 8.95449 7.90069 8.6046 8.10149 8.31065C8.19005 8.17835 8.30258 8.06378 8.43327 7.97286C8.60756 7.84719 8.82152 7.78899 9.03546 7.80906C9.2494 7.82913 9.4488 7.9261 9.59668 8.082C9.8466 8.34175 9.94591 8.65716 9.94973 9.07242Z" fill="#AEAEAE"/>
</svg>
