<svg width="22" height="22" viewBox="0 0 22 22" fill="none" xmlns="http://www.w3.org/2000/svg">
<path fill-rule="evenodd" clip-rule="evenodd" d="M15.6614 0.979816H6.28836C3.02536 0.979816 0.978943 3.29165 0.978943 6.56332V15.3882C0.978943 18.6598 3.01669 20.9717 6.28836 20.9717H15.6559C18.933 20.9717 20.9697 18.6598 20.9697 15.3882V6.56332C20.974 3.29165 18.9363 0.979816 15.6614 0.979816Z" stroke="black" stroke-width="1.625" stroke-linecap="round" stroke-linejoin="round"/>
<path fill-rule="evenodd" clip-rule="evenodd" d="M9.59506 7.51822C9.59506 8.62322 8.70023 9.51806 7.59523 9.51806C6.49131 9.51806 5.5954 8.62322 5.5954 7.51822C5.5954 6.41322 6.49131 5.51839 7.59523 5.51839C8.69915 5.51947 9.59398 6.41431 9.59506 7.51822Z" stroke="black" stroke-width="1.625" stroke-linecap="round" stroke-linejoin="round"/>
<path d="M20.9743 14.1976C19.9744 13.1684 18.0515 11.0895 15.9606 11.0895C13.8687 11.0895 12.663 15.6753 10.6512 15.6753C8.63948 15.6753 6.81189 13.6018 5.19989 14.931C3.58789 16.2592 2.06256 18.9751 2.06256 18.9751" stroke="black" stroke-width="1.625" stroke-linecap="round" stroke-linejoin="round"/>
</svg>
