<svg width="22" height="24" viewBox="0 0 22 24" fill="none" xmlns="http://www.w3.org/2000/svg">
<path d="M14.8052 0H6.66142C2.98357 0 0 2.98357 0 6.66142V12.7036C0 13.3979 0.562937 13.9608 1.25723 13.9608H6.62389V8.21888C6.62389 7.33695 7.33695 6.62389 8.21888 6.62389H13.2665C14.1485 6.62389 14.8615 7.33695 14.8615 8.21888V10.7333C14.8615 11.6153 14.1485 12.3283 13.2665 12.3283H8.03123C7.26189 12.3283 6.62389 12.9476 6.62389 13.7357V18.971H14.8052C18.4831 18.971 21.4667 15.9874 21.4667 12.3096V6.66142C21.4667 3.00233 18.4831 0.0187646 14.8052 0Z" fill="#303030"/>
<path d="M0.788112 24.0001H5.85454C6.28613 24.0001 6.64266 23.6436 6.64266 23.212V18.9712H0.788112C0.356527 18.9712 0 19.3277 0 19.7593V23.212C0 23.6436 0.356527 24.0001 0.788112 24.0001Z" fill="#303030"/>
</svg>
