<svg width="16" height="14" viewBox="0 0 16 14" fill="none" xmlns="http://www.w3.org/2000/svg">
<path fill-rule="evenodd" clip-rule="evenodd" d="M14.0519 4.87918C14.1671 4.99442 14.1671 5.18171 14.0519 5.29695L8.24497 11.1039C6.97882 12.37 4.97206 12.4161 3.70556 11.15L3.26373 10.708C1.99758 9.44181 1.99758 7.38893 3.26373 6.12265L7.67945 1.70694C7.74108 1.6453 7.79845 1.58538 7.86503 1.53194C7.86503 1.53177 7.86452 1.53143 7.86435 1.53126C7.87152 1.5246 7.88057 1.52272 7.88739 1.51606C8.23722 1.16623 8.2502 0.6122 7.90037 0.26237C7.55054 -0.0874566 6.98353 -0.0874566 6.63374 0.26237C6.62691 0.269199 6.62487 0.278589 6.61855 0.285418L6.6095 0.27637L2.03207 4.85336C0.0703659 6.81507 0.0703659 9.99549 2.03207 11.9575L2.44984 12.3753C4.41137 14.337 7.54608 14.291 9.50765 12.3295L15.2853 6.55189C16.093 5.74419 16.093 4.43468 15.2853 3.62693L12.8121 1.15919C12.0047 0.35197 10.6959 0.35197 9.88864 1.15919L4.09572 6.95212C3.28849 7.75934 3.28849 9.06832 4.09572 9.87555L4.49523 10.2751C5.30262 11.0823 6.61143 11.0823 7.41865 10.2751L11.8741 5.81956C11.9109 5.79259 11.9402 5.76527 11.9733 5.73215C12.3232 5.38232 12.3361 4.82829 11.9863 4.47846C11.6365 4.12863 11.0695 4.12863 10.7197 4.47846C10.71 4.48819 10.7067 4.50151 10.6977 4.51175L6.16918 9.04023C6.05496 9.15445 5.86955 9.15445 5.75533 9.04023L5.33755 8.62246C5.22333 8.50824 5.22333 8.32282 5.33755 8.20826L11.2048 2.34104C11.2668 2.27889 11.3497 2.25362 11.431 2.25909L14.0519 4.87918Z" fill="black"/>
</svg>
