<svg width="24" height="24" viewBox="0 0 24 24" fill="none" xmlns="http://www.w3.org/2000/svg">
<path d="M20.4854 3.51472C22.7358 5.76516 24.0001 8.8174 24.0001 12C24.0001 15.1826 22.7358 18.2348 20.4854 20.4853C18.2349 22.7357 15.1827 24 12.0001 24C8.81751 24 5.76526 22.7357 3.51482 20.4853C1.26439 18.2348 0.000103884 15.1826 0.000103884 12C0.000103884 8.8174 1.26439 5.76516 3.51482 3.51472C5.76526 1.26428 8.81751 -6.00782e-07 12.0001 -7.69369e-07C15.1827 -9.37957e-07 18.2349 1.26428 20.4854 3.51472ZM7.75746 16.2426C7.89812 16.3833 8.08888 16.4623 8.28779 16.4623C8.48671 16.4623 8.67747 16.3833 8.81812 16.2426L12.0001 13.0607L15.1821 16.2426C15.3227 16.3833 15.5135 16.4623 15.7124 16.4623C15.9113 16.4623 16.1021 16.3833 16.2427 16.2426C16.3834 16.102 16.4624 15.9112 16.4624 15.7123C16.4624 15.5134 16.3834 15.3226 16.2427 15.182L13.0608 12L16.2427 8.81802C16.3834 8.67737 16.4624 8.4866 16.4624 8.28769C16.4624 8.08878 16.3834 7.89801 16.2427 7.75736C16.1021 7.61671 15.9113 7.53769 15.7124 7.53769C15.5135 7.53769 15.3227 7.61671 15.1821 7.75736L12.0001 10.9393L8.81812 7.75736C8.67747 7.61671 8.48671 7.53769 8.28779 7.53769C8.08888 7.53769 7.89812 7.61671 7.75746 7.75736C7.61681 7.89801 7.53779 8.08878 7.53779 8.28769C7.53779 8.4866 7.61681 8.67737 7.75746 8.81802L10.9394 12L7.75746 15.182C7.61681 15.3226 7.53779 15.5134 7.53779 15.7123C7.53779 15.9112 7.61681 16.102 7.75746 16.2426Z" fill="#EAEBEE"/>
</svg>
