<svg width="35" height="37" viewBox="0 0 35 37" fill="none" xmlns="http://www.w3.org/2000/svg">
<path fill-rule="evenodd" clip-rule="evenodd" d="M17.1765 0C18.3622 0 19.3235 0.961379 19.3235 2.14706V20.467L24.2235 15.4137C25.0488 14.5625 26.4085 14.5414 27.2596 15.3672C28.1107 16.1925 28.1318 17.5522 27.306 18.4032L18.7178 27.2599C18.3138 27.6769 17.7574 27.9122 17.1766 27.9122C16.5958 27.9122 16.0393 27.6769 15.6354 27.2599L7.04713 18.4032C6.22137 17.5521 6.24246 16.1924 7.09361 15.3672C7.94477 14.5414 9.30447 14.5625 10.1297 15.4137L15.0296 20.467V2.14706C15.0296 0.961379 15.991 0 17.1767 0H17.1765ZM2.14706 26.8382C3.33274 26.8382 4.29412 27.7996 4.29412 28.9853V30.0588C4.29412 31.2445 5.2555 32.2059 6.44118 32.2059H27.9118C29.0974 32.2059 30.0588 31.2445 30.0588 30.0588V28.9853C30.0588 27.7996 31.0202 26.8382 32.2059 26.8382C33.3916 26.8382 34.3529 27.7996 34.3529 28.9853V30.0588C34.3529 33.6163 31.4693 36.5 27.9118 36.5H6.44118C2.88368 36.5 0 33.6163 0 30.0588V28.9853C0 27.7996 0.961379 26.8382 2.14706 26.8382Z" fill="black"/>
</svg>
