<svg width="15" height="14" viewBox="0 0 15 14" fill="none" xmlns="http://www.w3.org/2000/svg">
<path d="M5.31278 6.11644C5.31278 6.59892 4.91645 6.98999 4.42747 6.98999C3.93848 6.98999 3.54199 6.59892 3.54199 6.11644C3.54199 5.63396 3.93848 5.24274 4.42747 5.24274C4.91645 5.24274 5.31278 5.63396 5.31278 6.11644Z" fill="black"/>
<path d="M10.625 6.11644C10.625 6.59892 10.2285 6.98999 9.73956 6.98999C9.25058 6.98999 8.85425 6.59892 8.85425 6.11644C8.85425 5.63396 9.25058 5.24274 9.73956 5.24274C10.2285 5.24274 10.625 5.63396 10.625 6.11644Z" fill="black"/>
<path d="M7.08355 10.4846C7.55325 10.4846 8.00361 10.3004 8.33575 9.97269C8.66771 9.64514 8.85438 9.20074 8.85438 8.73729C8.85268 8.4297 8.76776 8.12805 8.60873 7.86359H5.55839C5.39936 8.12806 5.31444 8.42973 5.31274 8.73729C5.31274 9.20074 5.49942 9.64512 5.83137 9.97269C6.16348 10.3004 6.61388 10.4846 7.08357 10.4846H7.08355Z" fill="black"/>
<path d="M12.0836 5.21903C12.6324 6.72483 12.4539 8.39548 11.5991 9.75526C10.7442 11.1151 9.30657 12.0152 7.69555 12.1994C6.08452 12.3834 4.47659 11.8313 3.32945 10.7001C2.18227 9.56895 1.62163 7.98269 1.80704 6.39324C1.99248 4.80348 2.90375 3.38438 4.28132 2.53989C5.6589 1.69559 7.35206 1.51825 8.87826 2.05862C8.95252 1.46307 9.21686 0.906093 9.63313 0.468695C8.11832 -0.108092 6.44864 -0.153958 4.90379 0.339048C3.35886 0.832061 2.03239 1.83373 1.14675 3.17654C0.260966 4.51935 -0.130307 6.12159 0.038313 7.7151C0.207071 9.30849 0.925486 10.7963 2.0733 11.9296C3.22111 13.0627 4.72869 13.7724 6.34374 13.9396C7.95848 14.1069 9.58258 13.7218 10.9438 12.8485C12.3052 11.9752 13.3212 10.667 13.8216 9.14293C14.322 7.61884 14.2766 5.9712 13.6928 4.47605C13.2498 4.88572 12.6862 5.14563 12.0836 5.21875L12.0836 5.21903Z" fill="black"/>
<path d="M12.8385 2.40349C12.8385 3.00665 12.3429 3.49553 11.7317 3.49553C11.1205 3.49553 10.625 3.00665 10.625 2.40349C10.625 1.8005 11.1205 1.31146 11.7317 1.31146C12.3429 1.31146 12.8385 1.8005 12.8385 2.40349Z" fill="black"/>
</svg>
