<svg width="18" height="19" viewBox="0 0 18 19" fill="none" xmlns="http://www.w3.org/2000/svg">
<path d="M12.15 8.60002C12.8956 8.60002 13.5 7.99561 13.5 7.25002C13.5 6.50444 12.8956 5.90002 12.15 5.90002C11.4045 5.90002 10.8 6.50444 10.8 7.25002C10.8 7.99561 11.4045 8.60002 12.15 8.60002Z" fill="#383838"/>
<path d="M5.85 8.60002C6.59558 8.60002 7.2 7.99561 7.2 7.25002C7.2 6.50444 6.59558 5.90002 5.85 5.90002C5.10442 5.90002 4.5 6.50444 4.5 7.25002C4.5 7.99561 5.10442 8.60002 5.85 8.60002Z" fill="#383838"/>
<path d="M9 14.9C11.052 14.9 12.798 13.406 13.5 11.3H4.5C5.202 13.406 6.948 14.9 9 14.9Z" fill="#383838"/>
<path d="M8.991 0.5C4.023 0.5 0 4.532 0 9.5C0 14.468 4.023 18.5 8.991 18.5C13.968 18.5 18 14.468 18 9.5C18 4.532 13.968 0.5 8.991 0.5ZM9 16.7C5.022 16.7 1.8 13.478 1.8 9.5C1.8 5.522 5.022 2.3 9 2.3C12.978 2.3 16.2 5.522 16.2 9.5C16.2 13.478 12.978 16.7 9 16.7Z" fill="#383838"/>
</svg>
