<svg width="40" height="40" viewBox="0 0 40 40" fill="none" xmlns="http://www.w3.org/2000/svg">
<path d="M20.0029 8.16956C19.284 8.16956 18.5968 8.46582 18.1034 8.98914C17.6101 9.51213 17.3543 10.2153 17.3966 10.9333L18.0487 22.015H18.0484C18.088 22.6859 18.4689 23.2896 19.0575 23.614C19.6458 23.9386 20.3599 23.9386 20.9482 23.614C21.5368 23.2896 21.9177 22.6859 21.9573 22.015L22.6094 10.9333H22.6091C22.6514 10.2153 22.3957 9.51215 21.9023 8.98914C21.4089 8.46583 20.7218 8.16956 20.0029 8.16956H20.0029Z" fill="black"/>
<path d="M21.8489 28.9695C21.8604 29.9889 21.0432 30.8248 20.0238 30.8362C19.0044 30.8477 18.1688 30.0306 18.1573 29.0112C18.1459 27.9918 18.963 27.1559 19.9824 27.1444C21.0018 27.1329 21.8374 27.9501 21.8489 28.9695Z" fill="black"/>
<path d="M24.6336 1.91816C23.4053 0.689871 21.7395 0 20.0024 0C18.2657 0 16.5996 0.689879 15.3713 1.91816L2.41514 14.8728C1.18894 16.1017 0.5 17.7669 0.5 19.503C0.5 21.2391 1.18897 22.9043 2.41514 24.1332L15.3713 37.0878C16.5996 38.3161 18.2654 39.006 20.0024 39.006C21.7392 39.006 23.4053 38.3161 24.6336 37.0878L37.5898 24.1332C38.816 22.9043 39.5049 21.2391 39.5049 19.503C39.5049 17.7669 38.8159 16.1017 37.5898 14.8728L24.6336 1.91816ZM36.1387 22.6816L23.1817 35.6363C22.3385 36.4794 21.1949 36.9529 20.0026 36.9529C18.81 36.9529 17.6666 36.4794 16.8232 35.6363L3.86701 22.6816C3.02537 21.8379 2.55259 20.6948 2.55259 19.5028C2.55259 18.3108 3.02541 17.1678 3.86701 16.324L16.824 3.36941C17.6671 2.52623 18.8108 2.05282 20.0031 2.05282C21.1957 2.05282 22.3391 2.52624 23.1825 3.36941L36.1387 16.324C36.9803 17.1678 37.4531 18.3108 37.4531 19.5028C37.4531 20.6948 36.9803 21.8379 36.1387 22.6816Z" fill="black"/>
</svg>
