<svg width="20" height="14" viewBox="0 0 20 14" fill="none" xmlns="http://www.w3.org/2000/svg">
<path d="M18.9275 6.35507C17.9332 5.11739 14.3826 1.07971 9.99995 1.07971C5.61734 1.07985 2.06662 5.11739 1.07241 6.35507C0.788362 6.69998 0.788362 7.20725 1.07241 7.57254C2.06665 8.81022 5.61734 12.8479 9.99995 12.8479C14.3826 12.8479 17.9333 8.81022 18.9275 7.57254C19.1913 7.22763 19.1913 6.7 18.9275 6.35507V6.35507ZM9.99995 11.6304C6.26662 11.6304 3.04053 8.01884 2.14778 6.96377C3.02017 5.88841 6.26662 2.2971 9.99995 2.2971C13.7333 2.2971 16.9594 5.88844 17.8521 6.96377C16.9593 8.03913 13.7333 11.6304 9.99995 11.6304Z" fill="black"/>
<path d="M10.0003 3.35217C8.0119 3.35217 6.38867 4.9754 6.38867 6.96377C6.38867 8.95214 8.0119 10.5754 10.0003 10.5754C11.9886 10.5754 13.6119 8.95214 13.6119 6.96377C13.6119 4.9754 11.9886 3.35217 10.0003 3.35217ZM10.0003 9.35797C8.6815 9.35797 7.60614 8.28261 7.60614 6.96384C7.60614 5.64507 8.6815 4.56971 10.0003 4.56971C11.319 4.56971 12.3944 5.64507 12.3944 6.96384C12.3944 8.28261 11.319 9.35797 10.0003 9.35797V9.35797Z" fill="black"/>
</svg>
