<svg width="21" height="20" viewBox="0 0 21 20" fill="none" xmlns="http://www.w3.org/2000/svg">
<path d="M20.0267 10.0155C20.0271 8.10185 19.4792 6.22811 18.4477 4.61619C17.4162 3.00427 15.9444 1.72168 14.2066 0.92029C12.4688 0.1189 10.5377 -0.167727 8.64206 0.0943482C6.7464 0.356423 4.96553 1.15622 3.51032 2.39905C2.05512 3.64187 0.986523 5.27567 0.43107 7.10698C-0.124383 8.93829 -0.14343 10.8904 0.376182 12.7322C0.895795 14.574 1.9323 16.2284 3.36298 17.4993C4.79366 18.7703 6.55858 19.6047 8.44878 19.9037V12.9094H5.90663V10.0155H8.44878V7.80885C8.39404 7.29372 8.45327 6.77286 8.62229 6.28318C8.7913 5.7935 9.06596 5.34699 9.42678 4.9753C9.78761 4.6036 10.2258 4.31582 10.7102 4.13236C11.1947 3.94889 11.7135 3.87422 12.2301 3.91365C12.9811 3.92352 13.7304 3.98878 14.4718 4.10891V6.57596H13.2101C12.9952 6.54785 12.7767 6.56843 12.5708 6.63618C12.3649 6.70393 12.1769 6.81711 12.0207 6.96734C11.8644 7.11757 11.744 7.30101 11.6682 7.50409C11.5924 7.70717 11.5633 7.92469 11.583 8.14054V10.018H14.3604L13.9161 12.9119H11.578V19.91C13.9339 19.5373 16.0794 18.3359 17.6283 16.5219C19.1772 14.708 20.0277 12.4008 20.0267 10.0155Z" fill="white"/>
</svg>
