<?xml version="1.0" encoding="utf-8"?>
<!-- Generator: Adobe Illustrator 26.1.0, SVG Export Plug-In . SVG Version: 6.00 Build 0)  -->
<svg version="1.1" id="Layer_1" xmlns="http://www.w3.org/2000/svg" xmlns:xlink="http://www.w3.org/1999/xlink" x="0px" y="0px"
	 viewBox="0 0 22 22" style="enable-background:new 0 0 22 22;" xml:space="preserve">
<style type="text/css">
	.st0{fill:none;stroke:#000000;stroke-width:1.625;stroke-linecap:round;stroke-linejoin:round;}
</style>
<path class="st0" d="M15.7,1H6.3C3,1,1,3.3,1,6.6v8.8C1,18.7,3,21,6.3,21h9.4c3.3,0,5.3-2.3,5.3-5.6V6.6C21,3.3,18.9,1,15.7,1z"/>
<path class="st0" d="M20.7,13.7c-1-1-2.9-3.1-5-3.1c-2.1,0-3.3,4.6-5.3,4.6c-2,0-3.8-2.1-5.5-0.7c-1.6,1.3-3.1,4-3.1,4"/>
<path class="st0" d="M9.5,7.4c0,1.1-0.9,2-2,2c-1.1,0-2-0.9-2-2s0.9-2,2-2C8.6,5.4,9.5,6.3,9.5,7.4z"/>
</svg>
