<svg width="21" height="19" viewBox="0 0 21 19" fill="none" xmlns="http://www.w3.org/2000/svg">
<mask id="path-1-outside-1_998_13581" maskUnits="userSpaceOnUse" x="0" y="1" width="21" height="18" fill="black">
<rect fill="white" y="1" width="21" height="18"/>
<path d="M14.5612 18.1358C14.327 18.1338 14.0952 18.0883 13.8775 18.0019C13.5147 17.8598 13.1401 17.6397 12.7613 17.3465C12.3349 17.0144 11.911 16.6722 11.4995 16.3412C11.0973 16.0165 10.6831 15.681 10.2701 15.3604L10.2699 15.3603C10.2285 15.3325 10.1801 15.3167 10.1301 15.3147C9.59717 15.3013 9.05096 15.3028 8.52239 15.3044H7.70223C6.05488 15.2951 4.5515 14.7529 3.35373 13.7364C2.15568 12.7198 1.37596 11.3285 1.09658 9.70413C0.800485 7.98854 1.19042 6.24426 2.19467 4.79713C3.20304 3.34091 4.69903 2.37417 6.40677 2.07422C6.55522 2.04718 6.87291 2.02147 7.34902 2H7.38321C8.83054 2.00292 10.1295 2.00331 10.7756 2.00331C11.804 2.00331 12.8672 2.00331 13.9125 2H13.9459C14.0391 2.00451 14.1241 2.01219 14.1991 2.01962C15.679 2.15772 17.0841 2.84945 18.1547 3.96715C19.2138 5.07307 19.8618 6.50411 19.9772 7.99739C20.0856 9.40987 19.8055 10.7607 19.1671 11.9045C18.5396 13.0281 17.5621 13.959 16.3366 14.6006C16.3511 15.0674 16.3467 15.5354 16.3228 15.9956V15.9958C16.3052 16.3064 16.2462 16.6131 16.1473 16.908C15.9774 17.4101 15.6538 17.7927 15.2352 17.9887H15.2351C15.0241 18.0868 14.794 18.1372 14.5612 18.136L14.5612 18.1358ZM9.03427 13.9264C9.41015 13.9264 9.79132 13.9287 10.1703 13.9383H10.1777C10.5065 13.9492 10.8244 14.0589 11.0898 14.2534L11.1057 14.2653C11.5303 14.596 11.9545 14.9381 12.3646 15.2692C12.7747 15.6003 13.1895 15.9349 13.6049 16.2582C13.8781 16.4697 14.1383 16.6248 14.3761 16.718C14.4548 16.7484 14.5694 16.7777 14.6525 16.7392C14.7268 16.7043 14.7962 16.6052 14.8429 16.4672L14.843 16.4671C14.9023 16.2901 14.9379 16.1063 14.9488 15.9201C14.9718 15.4747 14.9748 15.0154 14.9584 14.5614C14.9372 14.0377 15.1659 13.6493 15.638 13.411C17.7002 12.3588 18.7838 10.4235 18.6057 8.09985C18.4175 5.67689 16.4258 3.60646 14.0719 3.3866C14.0121 3.38103 13.9558 3.37546 13.9012 3.37255C12.8594 3.37586 11.8015 3.37586 10.7779 3.37586C10.1348 3.37586 8.84332 3.37586 7.40077 3.37255C6.92283 3.39587 6.70575 3.41787 6.65855 3.42636H6.65113C3.89602 3.90881 1.97519 6.67545 2.45768 9.46697C2.91058 12.1211 5.02288 13.9125 7.71009 13.9261H8.5195L9.03427 13.9264Z"/>
</mask>
<path d="M14.5612 18.1358C14.327 18.1338 14.0952 18.0883 13.8775 18.0019C13.5147 17.8598 13.1401 17.6397 12.7613 17.3465C12.3349 17.0144 11.911 16.6722 11.4995 16.3412C11.0973 16.0165 10.6831 15.681 10.2701 15.3604L10.2699 15.3603C10.2285 15.3325 10.1801 15.3167 10.1301 15.3147C9.59717 15.3013 9.05096 15.3028 8.52239 15.3044H7.70223C6.05488 15.2951 4.5515 14.7529 3.35373 13.7364C2.15568 12.7198 1.37596 11.3285 1.09658 9.70413C0.800485 7.98854 1.19042 6.24426 2.19467 4.79713C3.20304 3.34091 4.69903 2.37417 6.40677 2.07422C6.55522 2.04718 6.87291 2.02147 7.34902 2H7.38321C8.83054 2.00292 10.1295 2.00331 10.7756 2.00331C11.804 2.00331 12.8672 2.00331 13.9125 2H13.9459C14.0391 2.00451 14.1241 2.01219 14.1991 2.01962C15.679 2.15772 17.0841 2.84945 18.1547 3.96715C19.2138 5.07307 19.8618 6.50411 19.9772 7.99739C20.0856 9.40987 19.8055 10.7607 19.1671 11.9045C18.5396 13.0281 17.5621 13.959 16.3366 14.6006C16.3511 15.0674 16.3467 15.5354 16.3228 15.9956V15.9958C16.3052 16.3064 16.2462 16.6131 16.1473 16.908C15.9774 17.4101 15.6538 17.7927 15.2352 17.9887H15.2351C15.0241 18.0868 14.794 18.1372 14.5612 18.136L14.5612 18.1358ZM9.03427 13.9264C9.41015 13.9264 9.79132 13.9287 10.1703 13.9383H10.1777C10.5065 13.9492 10.8244 14.0589 11.0898 14.2534L11.1057 14.2653C11.5303 14.596 11.9545 14.9381 12.3646 15.2692C12.7747 15.6003 13.1895 15.9349 13.6049 16.2582C13.8781 16.4697 14.1383 16.6248 14.3761 16.718C14.4548 16.7484 14.5694 16.7777 14.6525 16.7392C14.7268 16.7043 14.7962 16.6052 14.8429 16.4672L14.843 16.4671C14.9023 16.2901 14.9379 16.1063 14.9488 15.9201C14.9718 15.4747 14.9748 15.0154 14.9584 14.5614C14.9372 14.0377 15.1659 13.6493 15.638 13.411C17.7002 12.3588 18.7838 10.4235 18.6057 8.09985C18.4175 5.67689 16.4258 3.60646 14.0719 3.3866C14.0121 3.38103 13.9558 3.37546 13.9012 3.37255C12.8594 3.37586 11.8015 3.37586 10.7779 3.37586C10.1348 3.37586 8.84332 3.37586 7.40077 3.37255C6.92283 3.39587 6.70575 3.41787 6.65855 3.42636H6.65113C3.89602 3.90881 1.97519 6.67545 2.45768 9.46697C2.91058 12.1211 5.02288 13.9125 7.71009 13.9261H8.5195L9.03427 13.9264Z" fill="black"/>
<path d="M14.5612 18.1358C14.327 18.1338 14.0952 18.0883 13.8775 18.0019C13.5147 17.8598 13.1401 17.6397 12.7613 17.3465C12.3349 17.0144 11.911 16.6722 11.4995 16.3412C11.0973 16.0165 10.6831 15.681 10.2701 15.3604L10.2699 15.3603C10.2285 15.3325 10.1801 15.3167 10.1301 15.3147C9.59717 15.3013 9.05096 15.3028 8.52239 15.3044H7.70223C6.05488 15.2951 4.5515 14.7529 3.35373 13.7364C2.15568 12.7198 1.37596 11.3285 1.09658 9.70413C0.800485 7.98854 1.19042 6.24426 2.19467 4.79713C3.20304 3.34091 4.69903 2.37417 6.40677 2.07422C6.55522 2.04718 6.87291 2.02147 7.34902 2H7.38321C8.83054 2.00292 10.1295 2.00331 10.7756 2.00331C11.804 2.00331 12.8672 2.00331 13.9125 2H13.9459C14.0391 2.00451 14.1241 2.01219 14.1991 2.01962C15.679 2.15772 17.0841 2.84945 18.1547 3.96715C19.2138 5.07307 19.8618 6.50411 19.9772 7.99739C20.0856 9.40987 19.8055 10.7607 19.1671 11.9045C18.5396 13.0281 17.5621 13.959 16.3366 14.6006C16.3511 15.0674 16.3467 15.5354 16.3228 15.9956V15.9958C16.3052 16.3064 16.2462 16.6131 16.1473 16.908C15.9774 17.4101 15.6538 17.7927 15.2352 17.9887H15.2351C15.0241 18.0868 14.794 18.1372 14.5612 18.136L14.5612 18.1358ZM9.03427 13.9264C9.41015 13.9264 9.79132 13.9287 10.1703 13.9383H10.1777C10.5065 13.9492 10.8244 14.0589 11.0898 14.2534L11.1057 14.2653C11.5303 14.596 11.9545 14.9381 12.3646 15.2692C12.7747 15.6003 13.1895 15.9349 13.6049 16.2582C13.8781 16.4697 14.1383 16.6248 14.3761 16.718C14.4548 16.7484 14.5694 16.7777 14.6525 16.7392C14.7268 16.7043 14.7962 16.6052 14.8429 16.4672L14.843 16.4671C14.9023 16.2901 14.9379 16.1063 14.9488 15.9201C14.9718 15.4747 14.9748 15.0154 14.9584 14.5614C14.9372 14.0377 15.1659 13.6493 15.638 13.411C17.7002 12.3588 18.7838 10.4235 18.6057 8.09985C18.4175 5.67689 16.4258 3.60646 14.0719 3.3866C14.0121 3.38103 13.9558 3.37546 13.9012 3.37255C12.8594 3.37586 11.8015 3.37586 10.7779 3.37586C10.1348 3.37586 8.84332 3.37586 7.40077 3.37255C6.92283 3.39587 6.70575 3.41787 6.65855 3.42636H6.65113C3.89602 3.90881 1.97519 6.67545 2.45768 9.46697C2.91058 12.1211 5.02288 13.9125 7.71009 13.9261H8.5195L9.03427 13.9264Z" stroke="black" stroke-width="0.4" mask="url(#path-1-outside-1_998_13581)"/>
<path d="M12.0924 6.13892C10.9015 6.13892 10.5 7.19585 10.5 7.19585C10.5 7.19585 10.099 6.13892 8.90763 6.13892C7.71707 6.13892 7 7.27394 7 8.2094C7 9.77712 10.5 12.1665 10.5 12.1665C10.5 12.1665 14 9.77766 14 8.20973C14 7.27393 13.2832 6.13892 12.0924 6.13892V6.13892Z" fill="black"/>
</svg>
