<svg width="13" height="14" viewBox="0 0 13 14" fill="none" xmlns="http://www.w3.org/2000/svg">
<path d="M1.5249 14C1.11826 14 0.762448 13.8457 0.457469 13.5372C0.152489 13.2286 0 12.8687 0 12.4573V5.51515C0 5.36088 0.0508301 5.20661 0.0508301 5.05234C0.10166 4.89807 0.203319 4.7438 0.355809 4.58953L4.62552 0.269972C4.98133 -0.0899908 5.59129 -0.0899908 5.9471 0.269972C6.04876 0.372819 6.09959 0.475665 6.15042 0.578512C6.20125 0.681359 6.25208 0.784206 6.25208 0.887052V1.09275L5.64212 3.8696C5.54046 4.33241 5.89627 4.7438 6.35373 4.7438H10.9793C11.3351 4.7438 11.64 4.84665 11.8942 5.10377C12.1483 5.36088 12.25 5.66942 12.25 6.02938V7.05785C12.25 7.1607 12.25 7.26354 12.25 7.36639C12.25 7.46924 12.1992 7.52066 12.1992 7.57208L9.861 13.2287C9.75934 13.4858 9.60685 13.6915 9.3527 13.7943C9.14938 13.9486 8.8444 14 8.48859 14H1.5249Z" fill="black"/>
</svg>
