<svg width="28" height="28" viewBox="0 0 28 28" fill="none" xmlns="http://www.w3.org/2000/svg">
<path d="M8.74274 21C8.27801 21 7.87137 20.8237 7.52282 20.4711C7.17427 20.1185 7 19.7071 7 19.2369V11.303C7 11.1267 7.05809 10.9504 7.05809 10.7741C7.11618 10.5978 7.23237 10.4215 7.40664 10.2452L12.2863 5.30854C12.6929 4.89715 13.39 4.89715 13.7967 5.30854C13.9129 5.42608 13.971 5.54362 14.029 5.66116C14.0871 5.7787 14.1452 5.89623 14.1452 6.01377V6.24885L13.4481 9.42241C13.332 9.95133 13.7386 10.4215 14.2614 10.4215H19.5477C19.9544 10.4215 20.3029 10.539 20.5934 10.8329C20.8838 11.1267 21 11.4793 21 11.8907V13.0661C21 13.1837 21 13.3012 21 13.4187C21 13.5363 20.9419 13.595 20.9419 13.6538L18.2697 20.1185C18.1535 20.4123 17.9793 20.6474 17.6888 20.7649C17.4564 20.9412 17.1079 21 16.7012 21H8.74274ZM16.5851 19.2369L18.8506 13.9477C19.083 13.4187 19.1992 12.7723 19.1992 12.1846H13.2158C12.112 12.1846 11.2988 11.1267 11.473 10.0689L11.8216 8.30578L8.74274 11.4793V19.2369H16.5851Z" fill="black"/>
</svg>
