<svg width="17" height="18" viewBox="0 0 17 18" fill="none" xmlns="http://www.w3.org/2000/svg">
<path d="M9.78283 0.371931C9.51437 0.103468 9.1229 -0.00139425 8.75607 0.0967998C8.38923 0.195179 8.10282 0.481612 8.0044 0.848468C7.90621 1.21531 8.01108 1.60678 8.27954 1.87523L8.8559 2.4516L5.40296 5.90454H2.65668C2.02601 5.90435 1.42109 6.15465 0.975151 6.60062C0.529201 7.04638 0.278691 7.65128 0.278691 8.28177C0.278691 8.91244 0.529367 9.51717 0.975341 9.96292L3.27811 12.279L0.311323 15.246C0.0428603 15.5144 -0.0620022 15.9059 0.0361919 16.2727C0.134571 16.6396 0.421004 16.926 0.78786 17.0244C1.1547 17.1226 1.54617 17.0177 1.81462 16.7493L4.7816 13.7825L7.09769 16.0986C7.54345 16.5445 8.14816 16.7951 8.77884 16.7952C9.40932 16.7952 10.0142 16.5446 10.46 16.0986C10.9059 15.6526 11.1563 15.0479 11.1561 14.4173V11.6576L14.609 8.20466L15.1854 8.78102C15.4538 9.04948 15.8453 9.15435 16.2121 9.05615C16.579 8.95778 16.8654 8.67134 16.9638 8.30449C17.062 7.93764 16.9571 7.54618 16.6887 7.27772L9.78283 0.371931ZM9.34188 10.465H9.34207C9.14272 10.6644 9.031 10.9348 9.03118 11.2167V14.4172C9.03081 14.5189 8.9693 14.6105 8.87536 14.6494C8.78125 14.6883 8.67305 14.667 8.60097 14.5951L2.46545 8.45957C2.41783 8.4127 2.39097 8.3486 2.39097 8.28171C2.39801 8.14016 2.51492 8.02918 2.65665 8.02937H5.84389C6.12569 8.02955 6.39621 7.91783 6.59556 7.71848L10.3592 3.95483L13.1057 6.7013L9.34188 10.465Z" fill="black"/>
</svg>
