<?xml version="1.0" encoding="utf-8"?>
<!-- Generator: Adobe Illustrator 26.1.0, SVG Export Plug-In . SVG Version: 6.00 Build 0)  -->
<svg version="1.1" id="Layer_1" xmlns="http://www.w3.org/2000/svg" xmlns:xlink="http://www.w3.org/1999/xlink" x="0px" y="0px"
	 viewBox="0 0 20.31 20.31" style="enable-background:new 0 0 20.31 20.31;" xml:space="preserve">
<style type="text/css">
	.st0{stroke:#000000;stroke-width:2;}
	.st1{fill:#FFFFFF;}
</style>
<path class="st0" d="M10.16,1.16L10.16,1.16c4.97,0,9,4.03,9,9l0,0c0,4.97-4.03,9-9,9l0,0c-4.97,0-9-4.03-9-9l0,0
	C1.16,5.18,5.18,1.16,10.16,1.16z"/>
<g>
	<path class="st1" d="M5.57,9.39h9.17c0.42,0,0.76,0.34,0.76,0.76v0c0,0.42-0.34,0.76-0.76,0.76H5.57c-0.42,0-0.76-0.34-0.76-0.76v0
		C4.81,9.73,5.15,9.39,5.57,9.39z"/>
	<path class="st1" d="M9.39,14.74V5.57c0-0.42,0.34-0.76,0.76-0.76l0,0c0.42,0,0.76,0.34,0.76,0.76v9.17c0,0.42-0.34,0.76-0.76,0.76
		l0,0C9.73,15.5,9.39,15.16,9.39,14.74z"/>
</g>
</svg>
