<svg width="14" height="13" viewBox="0 0 14 13" fill="none" xmlns="http://www.w3.org/2000/svg">
<path d="M3.3276 4.86294C3.3276 4.38866 3.71046 4.0058 4.18474 4.0058C4.65903 4.0058 5.04189 4.38866 5.04189 4.86294C5.04189 5.33723 4.65903 5.72008 4.18474 5.72008C3.71046 5.72008 3.3276 5.33723 3.3276 4.86294ZM6.18474 9.43437C7.51617 9.43437 8.6476 8.60008 9.10474 7.43437H3.26474C3.72189 8.60008 4.85332 9.43437 6.18474 9.43437ZM8.18474 5.72008C8.65903 5.72008 9.04189 5.33723 9.04189 4.86294C9.04189 4.38866 8.65903 4.0058 8.18474 4.0058C7.71046 4.0058 7.3276 4.38866 7.3276 4.86294C7.3276 5.33723 7.71046 5.72008 8.18474 5.72008ZM11.899 0.00579834H10.7562V1.14866H9.61332V2.29151H10.7562V3.43437H11.899V2.29151H13.0419V1.14866H11.899V0.00579834ZM10.7562 6.29151C10.7562 8.81723 8.71046 10.8629 6.18474 10.8629C3.65903 10.8629 1.61332 8.81723 1.61332 6.29151C1.61332 3.7658 3.65903 1.72008 6.18474 1.72008C7.01903 1.72008 7.79617 1.94866 8.47046 2.33723V1.05723C7.7676 0.748655 6.99617 0.577227 6.17903 0.577227C3.02474 0.577227 0.470459 3.13723 0.470459 6.29151C0.470459 9.4458 3.02474 12.0058 6.17903 12.0058C9.33903 12.0058 11.899 9.4458 11.899 6.29151C11.899 5.69151 11.8019 5.12008 11.6305 4.57723H10.4133C10.6305 5.10866 10.7562 5.6858 10.7562 6.29151Z" fill="#383838"/>
</svg>
