<svg width="19" height="19" viewBox="0 0 19 19" fill="none" xmlns="http://www.w3.org/2000/svg">
<path d="M7.46127 9.43889C7.46127 10.0257 6.97924 10.5013 6.38454 10.5013C5.78983 10.5013 5.30762 10.0257 5.30762 9.43889C5.30762 8.85209 5.78983 8.37628 6.38454 8.37628C6.97924 8.37628 7.46127 8.85209 7.46127 9.43889Z" fill="black"/>
<path d="M13.9222 9.43889C13.9222 10.0257 13.44 10.5013 12.8453 10.5013C12.2506 10.5013 11.7686 10.0257 11.7686 9.43889C11.7686 8.85209 12.2506 8.37628 12.8453 8.37628C13.44 8.37628 13.9222 8.85209 13.9222 9.43889Z" fill="black"/>
<path d="M9.61461 14.7514C10.1859 14.7514 10.7336 14.5274 11.1376 14.1289C11.5413 13.7305 11.7683 13.19 11.7683 12.6264C11.7662 12.2523 11.663 11.8854 11.4695 11.5638H7.7597C7.56628 11.8854 7.463 12.2523 7.46094 12.6264C7.46094 13.19 7.68797 13.7305 8.0917 14.1289C8.49562 14.5274 9.04339 14.7514 9.61463 14.7514H9.61461Z" fill="black"/>
<path d="M17.6113 7.61471C18.264 9.37547 18.3013 11.3026 17.7149 13.0885C17.1135 14.9201 15.8925 16.4925 14.256 17.5423L14.31 17.6265L14.256 17.5423C12.6196 18.5921 10.667 19.0552 8.72562 18.8541C6.78383 18.6529 4.97149 17.7998 3.59182 16.4377C2.21216 15.0756 1.34884 13.2874 1.14604 11.3726C0.943415 9.45775 1.41358 7.53226 2.47817 5.9184L2.47817 5.91839C3.54259 4.3045 5.13704 3.10035 6.99443 2.50762C8.80487 1.92986 10.7579 1.96768 12.5421 2.61221C12.1066 3.11048 11.8203 3.71928 11.7159 4.36981C9.86172 3.75145 7.82132 3.98235 6.15473 5.00378L6.15472 5.00378C4.45344 6.04672 3.32754 7.79963 3.09842 9.76393C2.86931 11.7279 3.56211 13.6876 4.97909 15.0848C6.39595 16.4819 8.38159 17.1636 10.3707 16.9364C12.3599 16.7089 14.1355 15.5975 15.1916 13.9177L15.1069 13.8644L15.1916 13.9177C16.2257 12.2727 16.4586 10.2592 15.8312 8.42931C16.4898 8.32646 17.1064 8.04445 17.6113 7.61471Z" fill="black" stroke="white" stroke-width="0.2"/>
<path d="M16.6139 4.92314C16.6139 5.6567 16.0112 6.25128 15.2679 6.25128C14.5245 6.25128 13.9219 5.6567 13.9219 4.92314C13.9219 4.18977 14.5245 3.595 15.2679 3.595C16.0112 3.595 16.6139 4.18977 16.6139 4.92314Z" fill="black"/>
</svg>
