<svg width="19" height="19" viewBox="0 0 19 19" fill="none" xmlns="http://www.w3.org/2000/svg">
<path d="M6.81284 7.97947C6.81284 8.59819 6.3046 9.09967 5.67755 9.09967C5.0505 9.09967 4.54205 8.59819 4.54205 7.97947C4.54205 7.36076 5.0505 6.85907 5.67755 6.85907C6.3046 6.85907 6.81284 7.36076 6.81284 7.97947Z" fill="black"/>
<path d="M13.6252 7.97947C13.6252 8.59819 13.1168 9.09967 12.4897 9.09967C11.8627 9.09967 11.3544 8.59819 11.3544 7.97947C11.3544 7.36076 11.8627 6.85907 12.4897 6.85907C13.1168 6.85907 13.6252 7.36076 13.6252 7.97947Z" fill="black"/>
<path d="M9.08356 13.581C9.68587 13.581 10.2634 13.3448 10.6893 12.9245C11.115 12.5045 11.3544 11.9346 11.3544 11.3403C11.3522 10.9459 11.2433 10.5591 11.0394 10.2199H7.12776C6.92382 10.5591 6.81492 10.9459 6.81274 11.3403C6.81274 11.9346 7.05212 12.5045 7.47781 12.9245C7.9037 13.3448 8.48126 13.581 9.08358 13.581H9.08356Z" fill="black"/>
<path d="M6.31882 0.666034C8.2314 0.0556752 10.2949 0.0964915 12.1792 0.779092C11.7163 1.30641 11.4126 1.952 11.3031 2.64189C9.34798 1.98786 7.19562 2.23052 5.43794 3.30778L5.43793 3.30778C3.64552 4.40658 2.45934 6.25336 2.21795 8.32283C1.97658 10.3919 2.70647 12.4565 4.19933 13.9286C5.69207 15.4006 7.78408 16.1187 9.8798 15.8793C11.9755 15.6397 13.8462 14.4688 14.9589 12.6989L14.8742 12.6457L14.9589 12.6989C16.0495 10.964 16.2943 8.84009 15.6306 6.91061C16.3291 6.80275 16.9829 6.50359 17.5172 6.04689C18.2085 7.90655 18.2487 9.94258 17.6292 11.8293C16.9947 13.7617 15.7065 15.4207 13.9799 16.5282C12.2535 17.6358 10.1935 18.1243 8.14525 17.9121C6.09663 17.7 4.18457 16.7999 2.72897 15.3628C1.27338 13.9257 0.362533 12.0391 0.148575 10.019C-0.0652045 7.99868 0.430839 5.9672 1.55403 4.26451L1.55403 4.2645C2.67703 2.56179 4.35922 1.29137 6.31882 0.666034Z" fill="black" stroke="white" stroke-width="0.2"/>
<path d="M16.4637 3.21813C16.4637 3.99158 15.8282 4.6185 15.0445 4.6185C14.2606 4.6185 13.6252 3.99158 13.6252 3.21813C13.6252 2.44487 14.2606 1.81775 15.0445 1.81775C15.8282 1.81775 16.4637 2.44487 16.4637 3.21813Z" fill="black"/>
</svg>
