<svg width="18" height="16" viewBox="0 0 18 16" fill="none" xmlns="http://www.w3.org/2000/svg">
<mask id="path-1-outside-1_2272_5491" maskUnits="userSpaceOnUse" x="0" y="0" width="18" height="16" fill="black">
<rect fill="white" width="18" height="16"/>
<path d="M12.766 14.9998C12.5628 14.9981 12.3617 14.9587 12.1729 14.8837C11.858 14.7604 11.5331 14.5694 11.2044 14.315C10.8345 14.0269 10.4667 13.7299 10.1096 13.4428C9.76064 13.1611 9.40128 12.87 9.04295 12.5918L9.04284 12.5917C9.00684 12.5676 8.96487 12.5539 8.92152 12.5522C8.45912 12.5405 7.98521 12.5418 7.52662 12.5432H6.81502C5.38574 12.5351 4.08137 12.0647 3.04215 11.1828C2.0027 10.3008 1.3262 9.09367 1.0838 7.68429C0.826896 6.19581 1.16521 4.68242 2.03652 3.42686C2.91141 2.16341 4.20937 1.32464 5.69105 1.0644C5.81985 1.04094 6.09548 1.01863 6.50857 1H6.53823C7.79397 1.00253 8.92095 1.00287 9.48152 1.00287C10.3738 1.00287 11.2963 1.00287 12.2032 1H12.2322C12.313 1.00391 12.3868 1.01058 12.4518 1.01702C13.7359 1.13684 14.9549 1.737 15.8838 2.70675C16.8027 3.66627 17.3649 4.90788 17.4651 6.20348C17.5592 7.42899 17.3161 8.60101 16.7623 9.59336C16.2178 10.5683 15.3697 11.3759 14.3064 11.9326C14.319 12.3376 14.3152 12.7437 14.2945 13.1429V13.1431C14.2792 13.4126 14.228 13.6787 14.1422 13.9345C13.9948 14.3701 13.714 14.7021 13.3508 14.8722H13.3507C13.1676 14.9573 12.968 15.001 12.7661 15L12.766 14.9998ZM7.97073 11.3476C8.29685 11.3476 8.62757 11.3496 8.95634 11.358H8.96278C9.24808 11.3674 9.52385 11.4626 9.75418 11.6313L9.76798 11.6417C10.1363 11.9286 10.5044 12.2254 10.8602 12.5127C11.216 12.7999 11.5759 13.0903 11.9364 13.3707C12.1734 13.5543 12.3991 13.6888 12.6054 13.7697C12.6737 13.7961 12.7732 13.8215 12.8453 13.7881C12.9097 13.7578 12.9699 13.6718 13.0104 13.5521L13.0105 13.552C13.0619 13.3985 13.0929 13.239 13.1023 13.0774C13.1223 12.691 13.1248 12.2924 13.1107 11.8986C13.0923 11.4442 13.2907 11.1072 13.7003 10.9004C15.4895 9.9876 16.4297 8.30844 16.2751 6.29238C16.1118 4.19016 14.3838 2.39381 12.3415 2.20305C12.2897 2.19822 12.2408 2.19339 12.1934 2.19086C11.2896 2.19373 10.3717 2.19373 9.48354 2.19373C8.92559 2.19373 7.80506 2.19373 6.55347 2.19086C6.1388 2.21109 5.95045 2.23018 5.9095 2.23754H5.90306C3.51266 2.65613 1.8461 5.05654 2.26472 7.47853C2.65767 9.78132 4.49035 11.3356 6.82184 11.3474H7.5241L7.97073 11.3476Z"/>
</mask>
<path d="M12.766 14.9998C12.5628 14.9981 12.3617 14.9587 12.1729 14.8837C11.858 14.7604 11.5331 14.5694 11.2044 14.315C10.8345 14.0269 10.4667 13.7299 10.1096 13.4428C9.76064 13.1611 9.40128 12.87 9.04295 12.5918L9.04284 12.5917C9.00684 12.5676 8.96487 12.5539 8.92152 12.5522C8.45912 12.5405 7.98521 12.5418 7.52662 12.5432H6.81502C5.38574 12.5351 4.08137 12.0647 3.04215 11.1828C2.0027 10.3008 1.3262 9.09367 1.0838 7.68429C0.826896 6.19581 1.16521 4.68242 2.03652 3.42686C2.91141 2.16341 4.20937 1.32464 5.69105 1.0644C5.81985 1.04094 6.09548 1.01863 6.50857 1H6.53823C7.79397 1.00253 8.92095 1.00287 9.48152 1.00287C10.3738 1.00287 11.2963 1.00287 12.2032 1H12.2322C12.313 1.00391 12.3868 1.01058 12.4518 1.01702C13.7359 1.13684 14.9549 1.737 15.8838 2.70675C16.8027 3.66627 17.3649 4.90788 17.4651 6.20348C17.5592 7.42899 17.3161 8.60101 16.7623 9.59336C16.2178 10.5683 15.3697 11.3759 14.3064 11.9326C14.319 12.3376 14.3152 12.7437 14.2945 13.1429V13.1431C14.2792 13.4126 14.228 13.6787 14.1422 13.9345C13.9948 14.3701 13.714 14.7021 13.3508 14.8722H13.3507C13.1676 14.9573 12.968 15.001 12.7661 15L12.766 14.9998ZM7.97073 11.3476C8.29685 11.3476 8.62757 11.3496 8.95634 11.358H8.96278C9.24808 11.3674 9.52385 11.4626 9.75418 11.6313L9.76798 11.6417C10.1363 11.9286 10.5044 12.2254 10.8602 12.5127C11.216 12.7999 11.5759 13.0903 11.9364 13.3707C12.1734 13.5543 12.3991 13.6888 12.6054 13.7697C12.6737 13.7961 12.7732 13.8215 12.8453 13.7881C12.9097 13.7578 12.9699 13.6718 13.0104 13.5521L13.0105 13.552C13.0619 13.3985 13.0929 13.239 13.1023 13.0774C13.1223 12.691 13.1248 12.2924 13.1107 11.8986C13.0923 11.4442 13.2907 11.1072 13.7003 10.9004C15.4895 9.9876 16.4297 8.30844 16.2751 6.29238C16.1118 4.19016 14.3838 2.39381 12.3415 2.20305C12.2897 2.19822 12.2408 2.19339 12.1934 2.19086C11.2896 2.19373 10.3717 2.19373 9.48354 2.19373C8.92559 2.19373 7.80506 2.19373 6.55347 2.19086C6.1388 2.21109 5.95045 2.23018 5.9095 2.23754H5.90306C3.51266 2.65613 1.8461 5.05654 2.26472 7.47853C2.65767 9.78132 4.49035 11.3356 6.82184 11.3474H7.5241L7.97073 11.3476Z" fill="black"/>
<path d="M12.766 14.9998C12.5628 14.9981 12.3617 14.9587 12.1729 14.8837C11.858 14.7604 11.5331 14.5694 11.2044 14.315C10.8345 14.0269 10.4667 13.7299 10.1096 13.4428C9.76064 13.1611 9.40128 12.87 9.04295 12.5918L9.04284 12.5917C9.00684 12.5676 8.96487 12.5539 8.92152 12.5522C8.45912 12.5405 7.98521 12.5418 7.52662 12.5432H6.81502C5.38574 12.5351 4.08137 12.0647 3.04215 11.1828C2.0027 10.3008 1.3262 9.09367 1.0838 7.68429C0.826896 6.19581 1.16521 4.68242 2.03652 3.42686C2.91141 2.16341 4.20937 1.32464 5.69105 1.0644C5.81985 1.04094 6.09548 1.01863 6.50857 1H6.53823C7.79397 1.00253 8.92095 1.00287 9.48152 1.00287C10.3738 1.00287 11.2963 1.00287 12.2032 1H12.2322C12.313 1.00391 12.3868 1.01058 12.4518 1.01702C13.7359 1.13684 14.9549 1.737 15.8838 2.70675C16.8027 3.66627 17.3649 4.90788 17.4651 6.20348C17.5592 7.42899 17.3161 8.60101 16.7623 9.59336C16.2178 10.5683 15.3697 11.3759 14.3064 11.9326C14.319 12.3376 14.3152 12.7437 14.2945 13.1429V13.1431C14.2792 13.4126 14.228 13.6787 14.1422 13.9345C13.9948 14.3701 13.714 14.7021 13.3508 14.8722H13.3507C13.1676 14.9573 12.968 15.001 12.7661 15L12.766 14.9998ZM7.97073 11.3476C8.29685 11.3476 8.62757 11.3496 8.95634 11.358H8.96278C9.24808 11.3674 9.52385 11.4626 9.75418 11.6313L9.76798 11.6417C10.1363 11.9286 10.5044 12.2254 10.8602 12.5127C11.216 12.7999 11.5759 13.0903 11.9364 13.3707C12.1734 13.5543 12.3991 13.6888 12.6054 13.7697C12.6737 13.7961 12.7732 13.8215 12.8453 13.7881C12.9097 13.7578 12.9699 13.6718 13.0104 13.5521L13.0105 13.552C13.0619 13.3985 13.0929 13.239 13.1023 13.0774C13.1223 12.691 13.1248 12.2924 13.1107 11.8986C13.0923 11.4442 13.2907 11.1072 13.7003 10.9004C15.4895 9.9876 16.4297 8.30844 16.2751 6.29238C16.1118 4.19016 14.3838 2.39381 12.3415 2.20305C12.2897 2.19822 12.2408 2.19339 12.1934 2.19086C11.2896 2.19373 10.3717 2.19373 9.48354 2.19373C8.92559 2.19373 7.80506 2.19373 6.55347 2.19086C6.1388 2.21109 5.95045 2.23018 5.9095 2.23754H5.90306C3.51266 2.65613 1.8461 5.05654 2.26472 7.47853C2.65767 9.78132 4.49035 11.3356 6.82184 11.3474H7.5241L7.97073 11.3476Z" stroke="black" stroke-width="0.4" mask="url(#path-1-outside-1_2272_5491)"/>
<circle cx="6.04658" cy="6.6977" r="1.13953" fill="black"/>
<circle cx="9.30238" cy="6.6977" r="1.13953" fill="black"/>
<circle cx="12.5581" cy="6.6977" r="1.13953" fill="black"/>
</svg>
