<svg width="33" height="16" viewBox="0 0 33 16" fill="none" xmlns="http://www.w3.org/2000/svg">
<path d="M2.23754 11.6618L2.23648 11.4058L2.24495 11.6616C2.71246 11.6461 3.16818 11.8121 3.51615 12.1247L3.51607 12.1248L3.52245 12.1302C3.87188 12.4269 4.0748 12.8606 4.07843 13.3185L4.07838 13.3185L4.07851 13.3237C4.09008 13.7832 3.90338 14.226 3.56637 14.5386L3.56633 14.5385L3.56209 14.5426C3.30307 14.7925 2.97745 14.9626 2.62454 15.0322L2.62427 15.0323C2.27209 15.1021 1.90731 15.0689 1.5729 14.9369C1.36457 14.8511 1.17191 14.7314 1.00363 14.5825L1.00276 14.5817C0.833736 14.4333 0.696349 14.2531 0.598127 14.0509C0.397659 13.6307 0.389736 13.1439 0.576271 12.7168C0.666721 12.5114 0.797684 12.3263 0.961154 12.1728L0.961156 12.1728L0.962027 12.172C1.12631 12.0165 1.31763 11.8922 1.52667 11.8049C1.75251 11.7125 1.99376 11.6638 2.23754 11.6618Z" fill="black" stroke="white" stroke-width="0.59856"/>
<path d="M14.842 6.60409L14.8412 6.60355C14.472 6.35503 14.0331 6.23152 13.5882 6.2504L13.5807 6.25072L13.5807 6.25062L11.7753 6.28198V6.28261L11.481 6.28749C10.9725 6.29591 10.5071 6.57543 10.2601 7.02051C10.0132 7.46531 10.0225 8.00795 10.2843 8.44414L14.842 6.60409ZM14.842 6.60409C15.0816 6.77165 15.3854 7.10784 15.3965 7.77972L15.3965 7.78L15.4706 12.0355H15.4706L15.4707 12.0405C15.4868 12.5117 15.3343 12.9734 15.0408 13.3421C14.7431 13.7098 14.3713 14.0106 13.9495 14.2251L13.9487 14.2255C13.4897 14.4607 13.0004 14.6311 12.4951 14.7316L12.4951 14.7316L12.4927 14.7321C11.9798 14.8385 11.4588 14.8972 10.9353 14.9067C10.0572 14.9223 9.29309 14.8082 8.65823 14.5755L8.65824 14.5755L8.65483 14.5743C8.03841 14.3568 7.48162 13.9979 7.02924 13.5262C6.58705 13.0521 6.25611 12.4853 6.05992 11.8671C5.84232 11.1785 5.72935 10.4616 5.72409 9.73927L5.72404 9.73631L5.65855 5.92389L5.65857 5.92389L5.65848 5.92076C5.63853 5.19908 5.72699 4.47887 5.92121 3.78358C6.09607 3.16162 6.40636 2.58646 6.82987 2.09828C7.2667 1.61239 7.81112 1.23524 8.41921 0.996469L8.53425 0.951296C9.13948 0.724972 9.86107 0.599369 10.6872 0.58578L10.6882 0.585761C11.2028 0.575624 11.7172 0.623708 12.2217 0.728572L12.2231 0.728856C12.6809 0.821765 13.1258 0.968805 13.5491 1.16666L13.5491 1.16667L13.5514 1.16773C13.9147 1.33374 14.243 1.56604 14.5201 1.85313L14.5201 1.85316L14.5234 1.85653C14.7697 2.10372 14.9127 2.43549 14.9237 2.78458C14.9306 3.14458 14.7887 3.49164 14.5316 3.74427L14.5301 3.74575C14.2522 4.02266 13.8746 4.17602 13.4823 4.17179L13.4702 4.17166L13.4582 4.1725C13.2605 4.18632 13.0627 4.14936 12.8837 4.06507C12.7803 4.01033 12.6637 3.94525 12.5333 3.86952L12.5327 3.86916L12.3378 3.75661L12.3378 3.75658L12.3338 3.75438C12.1077 3.6283 11.8686 3.52555 11.6206 3.44874L11.6207 3.44871L11.6159 3.44733C11.3635 3.37364 11.1014 3.34026 10.8391 3.34742C10.4954 3.3418 10.1543 3.4058 9.83608 3.53494L9.83606 3.53489L9.83098 3.53707C9.58361 3.64281 9.3678 3.81061 9.20437 4.024L9.20427 4.02392L9.19919 4.03096C9.03313 4.26131 8.91964 4.5254 8.86703 4.80483C8.79614 5.15676 8.76572 5.51531 8.77616 5.87422L8.77708 5.90586L8.84193 9.68193C8.84374 10.0404 8.88633 10.398 8.96841 10.7468C9.03094 11.022 9.15207 11.2808 9.3241 11.505L9.32395 11.5052L9.33068 11.5133C9.50189 11.7209 9.72355 11.8805 9.97386 11.977L9.97384 11.9771L9.97865 11.9788C10.3011 12.0969 10.6441 12.1493 10.9869 12.1331C11.2628 12.132 11.5374 12.0923 11.8026 12.0138L12.0168 11.9503V11.9392C12.0744 11.917 12.1299 11.8939 12.183 11.8709L12.3669 11.7914L12.3634 11.591L12.3258 9.42015L12.3206 9.12086L12.0213 9.12611L11.5297 9.13473C11.021 9.14348 10.5466 8.88046 10.2844 8.44429L14.842 6.60409Z" fill="black" stroke="white" stroke-width="0.59856"/>
<path d="M18.3468 1.04912C18.6122 0.800514 18.955 0.65334 19.3154 0.630527L19.4478 0.628371C19.8517 0.621794 20.2428 0.772459 20.5377 1.049L20.5376 1.0491L20.5444 1.05502C20.8359 1.31242 21.0037 1.68231 21.0051 2.07148V13.5309C21.004 13.9199 20.8363 14.2901 20.5445 14.5475L20.5444 14.5475L20.5413 14.5503C20.2404 14.8234 19.8486 14.9746 19.4421 14.9746C19.0361 14.9746 18.6443 14.8234 18.3433 14.5503L18.3409 14.5482C18.0504 14.2902 17.8842 13.9203 17.8842 13.5312V2.07111C17.8846 1.68287 18.0508 1.31277 18.3412 1.0542L18.3413 1.05427L18.3468 1.04912Z" fill="black" stroke="white" stroke-width="0.59856"/>
<path d="M31.1846 6.73822L31.2209 6.7129L31.1942 6.74613C31.5038 6.99494 31.6824 7.37193 31.6792 7.7696L31.6791 7.7696L31.6792 7.77496C31.683 8.1654 31.5193 8.53913 31.2296 8.80086L31.2296 8.80085L31.2272 8.80308C30.9353 9.07267 30.5504 9.21914 30.153 9.21192L30.153 9.21187H30.1476H27.0171H26.7178V9.51115V13.531C26.7167 13.92 26.549 14.2902 26.2572 14.5476L26.2572 14.5476L26.254 14.5505C25.9531 14.8236 25.5613 14.9747 25.1552 14.9747C24.7488 14.9747 24.357 14.8236 24.056 14.5504L24.0561 14.5504L24.0526 14.5474C23.7607 14.2905 23.593 13.9205 23.5922 13.5311V2.36097C23.5933 2.15821 23.6391 1.9574 23.7258 1.77251L23.7259 1.77252L23.7267 1.77078C23.8127 1.58431 23.9317 1.41429 24.0776 1.26793C24.229 1.11793 24.4081 0.998039 24.6048 0.914945C24.8192 0.824927 25.0501 0.779592 25.2828 0.781926L25.2828 0.781941H25.2858H30.5091V0.78198L30.5139 0.781903C30.9213 0.775331 31.3139 0.930559 31.6062 1.21396L31.6061 1.21407L31.6131 1.22041C31.9017 1.48316 32.0669 1.85501 32.0682 2.24511L32.0682 2.24511L32.0682 2.24729C32.0723 2.6384 31.9002 3.01004 31.5994 3.25896L31.5994 3.25893L31.5962 3.26171C31.2941 3.51903 30.908 3.65705 30.5116 3.64911L30.5116 3.64905H30.5056H27.0097H26.7104V3.94833V6.04433V6.34361H27.0097H30.1397C30.5242 6.34506 30.8952 6.48507 31.1846 6.73822Z" fill="black" stroke="white" stroke-width="0.59856"/>
</svg>
