<svg width="16" height="15" viewBox="0 0 16 15" fill="none" xmlns="http://www.w3.org/2000/svg">
<path d="M6.37189 0.000203223C4.33147 0.00107511 2.41485 0.978649 1.21627 2.62966C0.0175692 4.28085 -0.318445 6.40586 0.312469 8.34597C0.943562 10.2863 2.46502 11.8074 4.40567 12.4378C6.34617 13.068 8.47114 12.7313 10.122 11.5321L13.2969 14.707C13.5496 14.9597 13.918 15.0584 14.2633 14.9659C14.6086 14.8733 14.8781 14.6037 14.9708 14.2585C15.0632 13.9132 14.9645 13.5447 14.7118 13.2921L11.5369 10.1171C12.4642 8.84259 12.8859 7.26952 12.7208 5.70204C12.5555 4.13455 11.815 2.68407 10.6423 1.6308C9.46977 0.577539 7.94813 -0.00346645 6.37212 1.55607e-05L6.37189 0.000203223ZM6.37189 10.7498C5.21157 10.7498 4.09885 10.2889 3.27839 9.46847C2.45793 8.64801 1.99705 7.53528 1.99705 6.37497C1.99705 5.21465 2.45793 4.10193 3.27839 3.28147C4.09885 2.46101 5.21157 2.00013 6.37189 2.00013C7.5322 2.00013 8.64493 2.46101 9.46539 3.28147C10.2858 4.10193 10.7467 5.21465 10.7467 6.37497C10.7453 7.53475 10.2841 8.6468 9.46383 9.46691C8.64372 10.2872 7.53171 10.7484 6.37189 10.7498Z" fill="black"/>
</svg>
