<svg width="15" height="14" viewBox="0 0 15 14" fill="none" xmlns="http://www.w3.org/2000/svg">
<path fill-rule="evenodd" clip-rule="evenodd" d="M14.4893 12.8259C14.535 13.3192 14.1719 13.7566 13.6785 13.8025L13.3209 13.8356C12.8272 13.8812 12.3902 13.5181 12.3444 13.0248L12.3112 12.6691C12.31 12.657 12.3121 12.6454 12.3114 12.6335C11.8313 8.47495 8.15022 5.43302 3.96971 5.75744L5.65317 7.52317C5.99859 7.87188 5.99612 8.43477 5.64721 8.78036L5.3956 9.02949C5.0469 9.37511 4.48422 9.37244 4.13863 9.02353L0.576891 5.28715L0.542946 5.253C0.370139 5.07875 0.284347 4.8504 0.285379 4.62306C0.286202 4.39512 0.373842 4.16779 0.548503 3.99455L0.58327 3.95999L4.17893 0.257526C4.52763 -0.0880933 5.09052 -0.085418 5.4359 0.263081L5.68504 0.514271C6.03066 0.863182 6.02798 1.42586 5.67948 1.77146L3.91354 3.59006C9.24069 3.22346 13.9164 7.14748 14.462 12.4764C14.4605 12.477 14.4587 12.4776 14.457 12.4782L14.4893 12.8259Z" fill="black"/>
</svg>
