<svg width="26" height="27" viewBox="0 0 26 27" fill="none" xmlns="http://www.w3.org/2000/svg">
<path d="M22.4447 9.13357C22.4999 9.24756 22.5165 9.37638 22.492 9.50062C22.4676 9.62487 22.4034 9.7378 22.3092 9.8224C22.2301 9.89274 22.1401 9.94971 22.0428 9.99107L21.9506 10.0344C21.7646 10.1211 21.5793 10.207 21.3941 10.2953C21.5924 11.0488 21.6118 11.8382 21.4509 12.6006C21.2759 13.4297 20.9094 14.1209 20.3601 14.6561C19.7522 15.2624 18.9284 15.6026 18.0698 15.6018H18.0437C17.3825 15.6018 16.7535 15.4127 16.123 15.0241C15.5127 14.647 15.001 14.1299 14.6303 13.5156C14.5628 13.4063 14.5043 13.2916 14.4553 13.1728C14.274 12.737 14.386 12.3933 14.7863 12.1521C14.944 12.0584 15.1016 11.9795 15.2592 11.907C16.1525 11.483 17.0457 11.06 17.9389 10.6381L18.3708 10.434C19.4025 9.94614 20.4688 9.44251 21.5092 8.93022C21.6075 8.8763 21.714 8.83901 21.8245 8.81988C21.9478 8.79894 22.0746 8.81811 22.1863 8.87457C22.2979 8.93103 22.3885 9.02181 22.4447 9.13357ZM20.3309 11.8251C20.3456 11.4931 20.3191 11.1606 20.2521 10.8352C20.1197 10.8974 19.9881 10.9613 19.858 11.0243L19.5199 11.1875C19.5269 11.2692 19.5288 11.3514 19.5254 11.4334C19.5254 11.4743 19.5254 11.5185 19.5254 11.5658V11.5847C19.5254 11.6146 19.5215 11.6493 19.5191 11.6856C19.5136 11.7778 19.5057 11.8929 19.4916 12.0071C19.4317 12.4706 19.3024 12.8197 19.0833 13.1066C18.9108 13.337 18.6822 13.5193 18.4192 13.6363C18.1562 13.7533 17.8677 13.801 17.5811 13.7749C17.3068 13.7499 17.0436 13.6551 16.8162 13.4996C16.5889 13.3442 16.4051 13.1332 16.2822 12.8867C16.2665 12.856 16.2483 12.8173 16.2294 12.774L15.967 12.8993L15.7353 13.0104C16.1443 13.5621 16.6022 13.9475 17.1445 14.1769C17.6331 14.385 18.0902 14.4354 18.5379 14.3345C19.1905 14.184 19.6728 13.7828 20.0141 13.109C20.2103 12.7086 20.3183 12.2708 20.3309 11.8251Z" fill="black"/>
<path d="M12.9988 0.989716C20.1662 0.989716 25.9977 6.82197 25.9977 13.9886C25.9977 21.1551 20.1654 26.9874 12.9988 26.9874C5.83225 26.9874 0 21.1551 0 13.9886C0 6.82197 5.83146 0.989716 12.9988 0.989716ZM24.5483 13.9886C24.5483 7.62273 19.3686 2.44306 13.0028 2.44306C6.63695 2.44306 1.4557 7.62273 1.4557 13.9886C1.4557 20.3544 6.633 25.5333 12.9988 25.5333C19.3647 25.5333 24.5483 20.3544 24.5483 13.9886Z" fill="black"/>
<path d="M12.9988 2.44071C19.3646 2.44071 24.5443 7.62038 24.5443 13.9862C24.5443 20.352 19.3646 25.5333 12.9988 25.5333C6.63299 25.5333 1.45569 20.3544 1.45569 13.9886C1.45569 7.62275 6.63299 2.44071 12.9988 2.44071ZM22.3092 9.82009C22.4036 9.73576 22.4679 9.62294 22.4924 9.49874C22.5169 9.37454 22.5001 9.24574 22.4448 9.1319C22.3894 9.01806 22.2984 8.92538 22.1856 8.86794C22.0728 8.8105 21.9443 8.79143 21.8197 8.81363C21.7093 8.83277 21.6027 8.87005 21.5044 8.92397C20.4641 9.43626 19.3978 9.93988 18.3661 10.4277L17.9342 10.6319C17.0409 11.0522 16.1477 11.4752 15.2545 11.9008C15.1016 11.9733 14.9392 12.0521 14.7816 12.1459C14.3812 12.3871 14.2693 12.7307 14.4506 13.1665C14.4996 13.2854 14.5581 13.4 14.6255 13.5094C14.9963 14.1236 15.508 14.6407 16.1183 15.0179C16.7488 15.4064 17.3793 15.5956 18.039 15.5956H18.065C18.9236 15.5963 19.7474 15.2562 20.3553 14.6498C20.907 14.1147 21.2712 13.4235 21.4461 12.5943C21.607 11.832 21.5876 11.0426 21.3894 10.289C21.5746 10.2008 21.7598 10.1149 21.9458 10.0282L22.038 9.98481C22.1366 9.94583 22.2282 9.89099 22.3092 9.82246V9.82009ZM17.7324 20.3418C17.7853 20.3623 17.8427 20.3687 17.8988 20.3604C17.955 20.3521 18.008 20.3294 18.0527 20.2944C18.0975 20.2594 18.1323 20.2135 18.154 20.161C18.1756 20.1085 18.1832 20.0513 18.1761 19.995C18.0973 19.3645 17.9673 18.3289 17.8908 17.7583C17.8498 17.4501 17.812 17.1419 17.7616 16.8353C17.7214 16.5855 17.5764 16.4555 17.3265 16.4263C17.2477 16.4176 17.1744 16.4161 17.0979 16.4137C15.0354 16.3546 12.9728 16.2986 10.9102 16.2348C10.0551 16.208 9.19998 16.1993 8.34563 16.1434C8.00121 16.1213 7.79393 16.3388 7.82152 16.6872C7.83728 16.8795 7.85698 17.0718 7.87432 17.2649C7.94105 18.012 8.00831 18.7592 8.07609 19.5064C8.08043 19.5536 8.09496 19.5993 8.11868 19.6403C8.1424 19.6814 8.17475 19.7168 8.21348 19.7442C8.25222 19.7715 8.29642 19.7901 8.34305 19.7987C8.38967 19.8073 8.43761 19.8057 8.48356 19.794C8.83192 19.7058 9.34184 19.5812 9.63424 19.5284C11.4202 19.2045 13.2093 19.143 15.0039 19.4583C15.7747 19.5962 17.0333 20.0746 17.7324 20.3442V20.3418ZM11.3666 12.5951C11.419 12.4638 11.4258 12.3186 11.3857 12.183C11.3457 12.0473 11.2612 11.929 11.1459 11.8472C11.0614 11.786 10.9727 11.7309 10.8803 11.6825C9.47057 10.9022 8.06006 10.123 6.64876 9.34484C6.15643 9.07267 5.66279 8.80286 5.16784 8.53541L5.04331 8.46763C4.92772 8.39965 4.80006 8.35469 4.66737 8.33523C4.55017 8.31771 4.43041 8.3361 4.32387 8.38799C4.21734 8.43988 4.12902 8.52283 4.07057 8.62592C4.01211 8.729 3.98627 8.84737 3.99643 8.96544C4.00659 9.0835 4.05228 9.19573 4.12749 9.2873C4.20454 9.38412 4.30021 9.46452 4.40886 9.52375L4.44117 9.54266C4.60983 9.64039 4.7848 9.74127 4.95977 9.83822C4.52235 10.5885 4.32925 11.3357 4.38048 12.1317C4.48452 13.8656 5.8882 15.1739 7.64576 15.1739H7.67492C8.02289 15.1691 8.36819 15.1125 8.69951 15.0061C9.82892 14.6546 10.6864 13.9027 11.3217 12.7094C11.3396 12.6734 11.3546 12.6359 11.3666 12.5975V12.5951Z" fill="#D96A3E"/>
<path d="M18.1761 19.9973C18.1832 20.0536 18.1756 20.1108 18.154 20.1633C18.1323 20.2158 18.0975 20.2617 18.0527 20.2967C18.008 20.3316 17.955 20.3544 17.8988 20.3627C17.8427 20.371 17.7853 20.3646 17.7324 20.3441C17.0333 20.0745 15.7747 19.5961 15.0039 19.4606C13.2093 19.1453 11.4202 19.2068 9.63424 19.5307C9.34184 19.5835 8.83191 19.7081 8.48355 19.7963C8.43761 19.808 8.38967 19.8097 8.34304 19.801C8.29641 19.7924 8.25221 19.7738 8.21348 19.7465C8.17474 19.7191 8.14239 19.6837 8.11867 19.6426C8.09495 19.6016 8.08042 19.5559 8.07608 19.5087C8.0083 18.7615 7.94104 18.0143 7.87431 17.2672C7.85697 17.0741 7.83727 16.8818 7.82151 16.6895C7.79393 16.3411 8.00121 16.1236 8.34563 16.1457C9.19997 16.2016 10.0551 16.2103 10.9102 16.2371C12.9728 16.3009 15.0354 16.3569 17.0979 16.416C17.1768 16.416 17.2508 16.416 17.3265 16.4286C17.5763 16.4578 17.7206 16.5862 17.7616 16.8376C17.8112 17.1442 17.8498 17.4524 17.8908 17.7606C17.9673 18.3312 18.0973 19.3668 18.1761 19.9973ZM16.4927 17.2451C16.4556 17.2246 16.4461 17.2144 16.4359 17.2144C16.0568 17.2002 15.6777 17.186 15.2986 17.1765C15.2143 17.1765 15.2033 17.2002 15.2505 17.29C15.4279 17.625 15.6076 17.9584 15.7873 18.2933C15.7983 18.3146 15.8148 18.3288 15.8566 18.3225C16.0789 17.9797 16.2838 17.6148 16.4927 17.2451ZM14.2701 17.2522C14.3 17.1608 14.2859 17.1434 14.1779 17.1387C13.9793 17.13 13.7799 17.1245 13.5813 17.1222C13.4981 17.1078 13.4127 17.116 13.3338 17.1458L13.8555 18.1704L13.906 18.1633C14.0266 17.8575 14.1676 17.5627 14.2701 17.2522ZM12.4857 17.1892C12.5283 17.1103 12.5125 17.0898 12.4156 17.0859C12.1405 17.0741 11.8639 17.0646 11.5904 17.0591C11.4744 17.0461 11.3573 17.0461 11.2413 17.0591C11.2657 17.212 11.7141 18.1081 11.8229 18.2185C12.0635 17.8876 12.286 17.544 12.4897 17.1892H12.4857ZM10.2986 17.1458C10.3625 17.0418 10.3491 17.0244 10.2198 17.0189C9.9621 17.0087 9.70517 17.0008 9.44745 16.9945C9.35569 16.9834 9.26267 16.9895 9.17318 17.0126L9.743 17.9403C9.75849 17.9424 9.77425 17.9398 9.78828 17.9329C9.80231 17.9261 9.81399 17.9152 9.82182 17.9016C9.97866 17.6518 10.1418 17.3996 10.2986 17.1458Z" fill="black"/>
<path d="M11.1499 11.8495C11.2652 11.9314 11.3497 12.0496 11.3897 12.1853C11.4297 12.3209 11.423 12.4661 11.3706 12.5975C11.3578 12.636 11.342 12.6734 11.3233 12.7094C10.688 13.9034 9.83054 14.6545 8.70113 15.006C8.36982 15.1125 8.02451 15.1691 7.67654 15.1739H7.64738C5.88983 15.1739 4.48614 13.8664 4.38211 12.1317C4.33403 11.3388 4.52397 10.5885 4.96139 9.83818C4.78642 9.74123 4.61146 9.64035 4.44279 9.54262L4.41048 9.52371C4.30183 9.46448 4.20617 9.38409 4.12912 9.28726C4.05391 9.19569 4.0082 9.08347 3.99804 8.9654C3.98788 8.84733 4.01373 8.72896 4.07219 8.62588C4.13064 8.52279 4.21895 8.43984 4.32549 8.38795C4.43202 8.33606 4.55179 8.31767 4.66899 8.33519C4.80168 8.35465 4.92934 8.39961 5.04494 8.46759L5.16946 8.53537C5.66336 8.80439 6.157 9.0742 6.65038 9.3448C8.06116 10.1224 9.47166 10.9016 10.8819 11.6824C10.9752 11.7316 11.0647 11.7874 11.1499 11.8495ZM10.0733 12.6574C9.86284 12.5415 9.67921 12.4406 9.51291 12.3421C9.45695 12.4264 9.40179 12.5068 9.34031 12.5856C9.02505 12.9892 8.68063 13.2485 8.28183 13.3793C8.0617 13.453 7.82842 13.4791 7.59743 13.4559C7.36645 13.4327 7.14303 13.3606 6.94199 13.2445C6.74431 13.1276 6.57373 12.9701 6.44152 12.7823C6.30932 12.5945 6.21852 12.3808 6.17513 12.1553C6.07543 11.6374 6.16938 11.1008 6.43916 10.6476C6.24895 10.5425 6.05848 10.4374 5.86775 10.3323C5.64246 10.7565 5.52524 11.2297 5.52649 11.71V11.7163C5.52507 11.8645 5.5372 12.0125 5.56274 12.1585C5.73771 13.2359 6.60703 13.9846 7.6789 13.9854H7.6923C8.66645 13.9854 9.44671 13.5488 10.0693 12.6574H10.0733Z" fill="black"/>
</svg>
