<svg width="26" height="27" viewBox="0 0 26 27" fill="none" xmlns="http://www.w3.org/2000/svg">
<path d="M12.9988 2.44534C19.3646 2.44534 24.5435 7.62501 24.5435 13.9908C24.5435 20.3567 19.3646 25.5379 12.9988 25.5379C6.63298 25.5379 1.45331 20.3582 1.45331 13.9924C1.45331 7.62659 6.63219 2.44534 12.9988 2.44534ZM22.6307 13.2744C22.6807 13.0593 22.6844 12.8361 22.6417 12.6195C22.5542 12.2475 22.2477 12.0418 21.8788 12.1088C21.7715 12.1261 21.6628 12.1343 21.5541 12.1332L20.3782 12.1466L16.7047 12.1899C16.3106 12.1947 15.9078 12.2033 15.5224 12.212H15.4113C15.2496 12.2073 15.0886 12.236 14.9384 12.2963C14.8268 12.3422 14.7311 12.42 14.6634 12.5199C14.5957 12.6199 14.5589 12.7376 14.5578 12.8583C14.5544 12.9792 14.5875 13.0983 14.6528 13.2002C14.718 13.3021 14.8123 13.382 14.9235 13.4297C15.0301 13.4798 15.1461 13.5066 15.2639 13.5085L15.5587 13.5156V13.529C15.6536 14.3388 15.9991 15.0988 16.547 15.7027C17.1988 16.412 18.0059 16.7935 18.9461 16.8234H18.9595C19.4317 16.819 19.8977 16.7154 20.3273 16.5194C20.7569 16.3233 21.1405 16.0392 21.4532 15.6853C22.0657 15.0101 22.474 14.1749 22.6307 13.2768V13.2744ZM16.4091 18.6858C16.5036 18.543 16.551 18.3742 16.5448 18.203C16.5386 18.0319 16.479 17.867 16.3744 17.7314C16.2759 17.6092 16.1539 17.508 16.0158 17.4334C15.6876 17.2405 15.345 17.0729 14.9912 16.9322C14.2468 16.6206 13.454 16.4401 12.6481 16.3986C12.5835 16.3986 12.5204 16.3986 12.4597 16.3986C12.167 16.3956 11.8753 16.4327 11.5928 16.509C11.3026 16.581 11.0387 16.7334 10.8314 16.9487C10.6589 17.1186 10.5554 17.3463 10.5406 17.5879V17.5982C10.5307 17.7562 10.5701 17.9134 10.6533 18.0482C10.7364 18.183 10.8593 18.2886 11.005 18.3507C11.1507 18.4127 11.3121 18.4281 11.4669 18.3947C11.6216 18.3613 11.7623 18.2807 11.8694 18.1641C11.9277 18.1026 12.0073 18.0577 12.2075 18.0379C12.2863 18.0301 12.3699 18.0261 12.4518 18.0261C12.5813 18.0264 12.7107 18.0359 12.8388 18.0545C13.6656 18.1672 14.4617 18.4428 15.1812 18.8655L15.1891 18.8702C15.2999 18.9423 15.4218 18.9956 15.55 19.0279C15.6102 19.0404 15.6714 19.0467 15.7329 19.0468C15.8664 19.0473 15.998 19.0148 16.116 18.9523C16.2339 18.8897 16.3346 18.799 16.4091 18.6882V18.6858ZM11.5675 13.2744C11.6175 13.0593 11.6213 12.8361 11.5786 12.6195C11.4911 12.2475 11.1845 12.0426 10.8157 12.1088C10.7083 12.1261 10.5997 12.1343 10.4909 12.1332L9.31582 12.1466L5.6415 12.1899C5.24743 12.1947 4.8439 12.2033 4.45928 12.212H4.34894C4.18719 12.2073 4.02622 12.236 3.87606 12.2963C3.76439 12.3422 3.66871 12.42 3.60101 12.5199C3.5333 12.6199 3.49656 12.7376 3.49539 12.8583C3.49208 12.9792 3.52518 13.0983 3.59038 13.2002C3.65559 13.3021 3.7499 13.382 3.86109 13.4297C3.96769 13.4798 4.08376 13.5067 4.20156 13.5085L4.49554 13.5156V13.529C4.59041 14.3388 4.93596 15.0988 5.48387 15.7027C6.13566 16.412 6.94272 16.7935 7.88297 16.8234H7.89637C8.36856 16.819 8.83456 16.7154 9.26415 16.5194C9.69374 16.3233 10.0773 16.0392 10.3901 15.6853C11.0025 15.0101 11.4108 14.1749 11.5675 13.2768V13.2744Z" fill="#00C38F"/>
<path d="M22.6417 12.6218C22.6844 12.8385 22.6806 13.0617 22.6306 13.2768C22.4737 14.1776 22.0637 15.0152 21.4484 15.6916C21.1357 16.0455 20.7521 16.3296 20.3225 16.5257C19.8929 16.7217 19.4269 16.8253 18.9547 16.8297H18.9413C18.0011 16.7998 17.194 16.4223 16.5422 15.709C15.9943 15.1051 15.6488 14.3451 15.5539 13.5353V13.5219L15.2591 13.5148C15.1414 13.5129 15.0253 13.4861 14.9187 13.436C14.8075 13.3883 14.7132 13.3084 14.648 13.2065C14.5828 13.1046 14.5497 12.9855 14.553 12.8646C14.5541 12.7439 14.5909 12.6262 14.6586 12.5262C14.7263 12.4263 14.822 12.3485 14.9336 12.3026C15.0838 12.2423 15.2448 12.2136 15.4065 12.2183H15.5177C15.9062 12.2096 16.3058 12.201 16.6999 12.1962L20.3734 12.1529L21.5493 12.1395C21.658 12.1406 21.7667 12.1324 21.874 12.1151C22.2484 12.0441 22.5542 12.2498 22.6417 12.6218ZM21.1371 13.4722C21.0583 13.4722 20.985 13.4722 20.9093 13.4722C20.8952 13.6057 20.8576 13.7357 20.7982 13.8561C20.6916 14.0956 20.5364 14.3104 20.3424 14.4868C20.1484 14.6632 19.9198 14.7973 19.6712 14.8807C19.4704 14.9556 19.2561 14.9872 19.0422 14.9735C18.8284 14.9597 18.6199 14.9009 18.4304 14.8009C18.2409 14.7008 18.0747 14.5618 17.9427 14.393C17.8107 14.2242 17.7159 14.0294 17.6646 13.8214C17.6364 13.7196 17.6179 13.6154 17.6094 13.5101H17.4517V13.518H16.8354C16.8905 13.7373 16.9678 13.9504 17.0663 14.154C17.2321 14.5137 17.4802 14.8293 17.7907 15.0753C18.3999 15.5419 19.0391 15.6341 19.6909 15.3496C20.442 15.0186 20.9172 14.4038 21.1371 13.4722Z" fill="black"/>
<path d="M12.9988 0.994354C20.1662 0.994354 25.9977 6.82661 25.9977 13.9932C25.9977 21.1598 20.1654 26.992 12.9988 26.992C5.83225 26.992 0 21.1598 0 13.9932C0 6.82661 5.83068 0.994354 12.9988 0.994354ZM24.5435 13.9932C24.5435 7.62737 19.3647 2.44769 12.9988 2.44769C6.63301 2.44769 1.45333 7.62737 1.45333 13.9932C1.45333 20.359 6.63222 25.5379 12.9988 25.5379C19.3654 25.5379 24.5435 20.359 24.5435 13.9932Z" fill="black"/>
<path d="M16.3743 17.7353C16.4789 17.8709 16.5384 18.0358 16.5447 18.2069C16.5509 18.3781 16.5034 18.5469 16.409 18.6897C16.3341 18.8 16.2333 18.8901 16.1153 18.9521C15.9974 19.0141 15.866 19.046 15.7328 19.0452C15.6713 19.0451 15.61 19.0388 15.5499 19.0263C15.4217 18.994 15.2997 18.9407 15.1889 18.8686L15.1811 18.8639C14.4616 18.4412 13.6654 18.1656 12.8387 18.0529C12.7105 18.0342 12.5812 18.0248 12.4517 18.0245C12.3729 18.0245 12.287 18.0245 12.2074 18.0363C12.0072 18.056 11.9276 18.101 11.8693 18.1625C11.7618 18.2782 11.6212 18.3579 11.4667 18.3908C11.3123 18.4237 11.1514 18.4081 11.0061 18.3462C10.8608 18.2843 10.7381 18.1791 10.6548 18.045C10.5715 17.9108 10.5315 17.7542 10.5405 17.5966V17.5863C10.5552 17.3447 10.6588 17.117 10.8313 16.9471C11.0386 16.7318 11.3025 16.5794 11.5926 16.5074C11.8752 16.4311 12.1669 16.394 12.4596 16.397C12.5203 16.397 12.5833 16.397 12.648 16.397C13.4539 16.4385 14.2466 16.619 14.9911 16.9306C15.3449 17.0713 15.6874 17.2389 16.0157 17.4318C16.1543 17.508 16.2763 17.6112 16.3743 17.7353Z" fill="black"/>
<path d="M11.5784 12.6218C11.6211 12.8384 11.6174 13.0617 11.5674 13.2768C11.4104 14.1776 11.0004 15.0152 10.3852 15.6916C10.0724 16.0454 9.68884 16.3296 9.25926 16.5256C8.82967 16.7217 8.36368 16.8253 7.89148 16.8297H7.87808C6.93783 16.7998 6.13077 16.4222 5.47897 15.709C4.93106 15.1051 4.58553 14.3451 4.49065 13.5353V13.5219L4.19667 13.5148C4.07887 13.513 3.96279 13.4861 3.85619 13.436C3.745 13.3883 3.65069 13.3084 3.58549 13.2065C3.52028 13.1046 3.48719 12.9855 3.49049 12.8646C3.49167 12.7438 3.52841 12.6261 3.59612 12.5262C3.66383 12.4262 3.7595 12.3485 3.87117 12.3026C4.02133 12.2423 4.18231 12.2136 4.34405 12.2183H4.45439C4.84294 12.2096 5.24253 12.2009 5.6366 12.1962L9.31093 12.1529L10.4884 12.1395C10.5971 12.1405 10.7058 12.1324 10.8131 12.115C11.1843 12.0449 11.4909 12.2498 11.5784 12.6218ZM10.0738 13.4722C9.99503 13.4722 9.92252 13.4722 9.84607 13.4722C9.83196 13.6057 9.79433 13.7357 9.73494 13.856C9.62811 14.0955 9.4728 14.3101 9.27882 14.4865C9.08483 14.6628 8.85638 14.797 8.6079 14.8806C8.40715 14.9556 8.19283 14.9872 7.97899 14.9734C7.76515 14.9597 7.55663 14.9009 7.36714 14.8008C7.17764 14.7008 7.01144 14.5618 6.87945 14.393C6.74747 14.2242 6.65267 14.0294 6.6013 13.8214C6.57308 13.7196 6.5546 13.6153 6.54612 13.51H6.38849V13.5179H5.77217C5.82722 13.7373 5.90459 13.9504 6.00309 14.154C6.16883 14.5137 6.41697 14.8293 6.7274 15.0753C7.33663 15.5419 7.97581 15.6341 8.62761 15.3496C9.37871 15.0185 9.8579 14.4038 10.0738 13.4722Z" fill="black"/>
</svg>
