<svg width="26" height="27" viewBox="0 0 26 27" fill="none" xmlns="http://www.w3.org/2000/svg">
<path d="M7.18396 16.5823C7.0569 16.5815 6.93227 16.6171 6.82476 16.6848C6.71724 16.7526 6.63131 16.8496 6.5771 16.9645C6.51063 17.1013 6.47844 17.2523 6.4833 17.4043C6.4833 17.6557 6.4833 17.9111 6.4833 18.1593H6.45887V18.529C6.45887 18.6322 6.45887 18.7363 6.45887 18.8395C6.45887 19.0949 6.45887 19.3597 6.45887 19.6198C6.45376 19.8111 6.48367 20.0019 6.54715 20.1825C6.58395 20.2916 6.65238 20.3874 6.74374 20.4576C6.8351 20.5277 6.94527 20.5692 7.06023 20.5766H7.09885C7.21361 20.5759 7.32564 20.5415 7.42095 20.4776C7.51627 20.4137 7.59064 20.3231 7.63478 20.2172C7.70306 20.0633 7.74234 19.8982 7.75064 19.7301C7.76877 19.5047 7.78532 19.2832 7.79714 19.0554C7.82709 18.4959 7.8531 17.9426 7.87595 17.4792C7.89203 17.3168 7.86879 17.153 7.80817 17.0015C7.75903 16.8765 7.67297 16.7694 7.56147 16.6945C7.44996 16.6196 7.31828 16.5805 7.18396 16.5823Z" fill="black"/>
<path d="M16.2019 12.9947C16.3195 12.913 16.4108 12.7989 16.4647 12.6662C16.5186 12.5336 16.5327 12.3881 16.5053 12.2475C16.4769 12.0961 16.4117 11.954 16.3154 11.8337L16.2097 11.6919C16.112 11.5595 16.0096 11.4223 15.8992 11.2899C15.5725 10.8983 15.1752 10.5713 14.728 10.326C14.3488 10.1174 13.9227 10.0089 13.4899 10.0108H13.4631C12.8255 10.025 12.202 10.2007 11.4927 10.5625C11.1349 10.7383 10.8087 10.9721 10.5272 11.2545C10.3855 11.3936 10.2713 11.5584 10.1907 11.7399C10.0996 11.9359 10.0825 12.1582 10.1426 12.3657C10.1767 12.4963 10.2484 12.6139 10.3489 12.7039C10.4494 12.7938 10.5742 12.8522 10.7077 12.8717C10.7432 12.8773 10.779 12.8802 10.8149 12.8804C10.9342 12.8808 11.0512 12.8484 11.1534 12.7868C11.2555 12.7253 11.3388 12.6369 11.3942 12.5312C11.473 12.3894 11.6007 12.2664 11.8198 12.1206C12.2308 11.8501 12.6908 11.6627 13.1738 11.5689C13.2664 11.5499 13.3607 11.5401 13.4552 11.5398C13.7032 11.5395 13.945 11.6173 14.1464 11.762C14.3925 11.9267 14.6113 12.1288 14.795 12.361C14.8667 12.4548 14.9385 12.551 15.0086 12.644L15.1 12.7653C15.1838 12.8833 15.2939 12.9802 15.4216 13.0483C15.5317 13.1056 15.6537 13.1361 15.7778 13.1373C15.9306 13.1349 16.0787 13.085 16.2019 12.9947ZM16.6054 11.0243C16.5707 12.2491 16.5557 13.4936 16.5423 14.6971L16.536 15.1952C16.5061 17.7401 16.4572 22.4059 16.3918 25.0304C14.3924 25.6443 12.264 25.7042 10.2333 25.2038C10.2233 24.9563 10.2125 24.7088 10.2009 24.4614C10.171 23.7765 10.1395 21.1441 10.1079 20.4481L10.0291 18.6851C9.95741 17.082 9.88412 15.4237 9.80845 13.7931C9.79584 13.5212 9.78401 13.2414 9.77219 12.9758C9.73751 12.1663 9.70205 11.3309 9.63742 10.5049C9.87973 10.3726 10.101 10.205 10.2939 10.0076C10.6448 9.64751 10.9629 9.25689 11.2444 8.84037C11.3769 8.66475 11.4444 8.44858 11.4352 8.22878C11.4247 8.05127 11.3479 7.88418 11.22 7.76061C11.0917 7.63587 10.9198 7.56604 10.7408 7.56595C10.701 7.56596 10.6612 7.56912 10.6218 7.5754C10.4386 7.60525 10.2715 7.69773 10.1489 7.83706C10.0739 7.92065 10.0031 8.00799 9.93692 8.09873C9.75653 8.35002 9.56289 8.59152 9.35684 8.82224C9.2062 8.99796 9.02142 9.14125 8.81373 9.2434C8.60604 9.34556 8.37976 9.40444 8.14862 9.4165C7.78292 9.43857 7.40067 9.44961 7.01212 9.44961C6.4817 9.44961 5.93236 9.4299 5.3318 9.38892L5.18205 9.37788C4.89123 9.35739 4.59095 9.33611 4.2883 9.33611H4.28279C4.14259 9.33014 4.00262 9.35267 3.87137 9.40232C3.74828 9.44782 3.64135 9.52863 3.56398 9.63464C3.48662 9.74064 3.44226 9.86711 3.43645 9.99822C3.43064 10.1293 3.46365 10.2592 3.53134 10.3717C3.59903 10.4841 3.6984 10.574 3.81699 10.6302C3.93455 10.6872 4.06133 10.7227 4.19136 10.7351C4.37263 10.7587 4.55627 10.7808 4.7336 10.8021C4.63745 12.2207 4.55469 13.6583 4.47509 15.0509C4.44593 15.5498 4.41677 16.0661 4.38682 16.5736C4.34426 17.2987 4.3017 18.0356 4.26072 18.7481C4.24495 19.0255 4.22919 20.5845 4.21264 21.4711C2.42868 19.3848 1.4502 16.7289 1.45414 13.9838C1.45414 7.61797 6.63303 2.43829 12.9989 2.43829C19.3647 2.43829 24.5443 7.61797 24.5443 13.9838C24.5468 16.317 23.8383 18.5955 22.5133 20.5159C22.4936 19.794 22.4731 18.2863 22.4526 18.3194C22.4195 18.0774 22.3872 17.8354 22.3549 17.599C22.2201 16.6044 22.0806 15.5758 21.9364 14.5647C21.8962 14.2825 21.8576 13.9956 21.8174 13.7174C21.7007 12.8788 21.5809 12.0134 21.4336 11.1591C21.5542 11.1519 21.6742 11.1369 21.7929 11.1142C21.9927 11.0876 22.1811 11.0057 22.3368 10.8777C22.4156 10.8127 22.4769 10.729 22.5151 10.6342C22.5532 10.5394 22.567 10.4365 22.5552 10.335C22.5433 10.2335 22.5063 10.1366 22.4473 10.0531C22.3884 9.96958 22.3094 9.9022 22.2178 9.85707C22.1251 9.80595 22.0234 9.7733 21.9183 9.76092L21.8536 9.75304C21.7646 9.74201 21.6724 9.73098 21.573 9.72782C21.3366 9.71994 21.1002 9.71364 20.8637 9.70733L20.3065 9.69156L20.0945 9.68605C19.6823 9.67423 19.2922 9.66319 18.902 9.61354C18.4749 9.55994 18.0217 9.49296 17.5984 9.33296C17.2907 9.22197 17.0351 9.00065 16.8812 8.71191C16.7614 8.49747 16.6629 8.27176 16.5873 8.03804C16.5873 8.0278 16.5802 8.01676 16.577 8.00651C16.5599 7.94661 16.5388 7.8879 16.514 7.83076C16.4556 7.69398 16.3587 7.5771 16.2352 7.49428C16.1117 7.41146 15.9667 7.36626 15.818 7.36418C15.6941 7.36399 15.5721 7.39502 15.4633 7.45438C15.3545 7.51375 15.2623 7.59955 15.1954 7.70387C15.1015 7.85585 15.06 8.0344 15.0772 8.21222C15.0922 8.34699 15.124 8.47937 15.1718 8.60629C15.3 9.01568 15.4903 9.40297 15.7361 9.75462C15.9696 10.0834 16.2743 10.3552 16.6275 10.5499C16.6172 10.7232 16.6101 10.8761 16.6054 11.0212V11.0243Z" fill="#239CB8"/>
<path d="M12.9988 0.992035C20.167 0.992035 25.9977 6.82429 25.9977 13.9909C25.9977 21.1575 20.1654 26.9897 12.9988 26.9897C5.83226 26.9897 0 21.1575 0 13.9909C0 6.82429 5.83147 0.992035 12.9988 0.992035ZM22.5133 20.523C23.8383 18.6026 24.5468 16.324 24.5443 13.9909C24.5443 7.62505 19.3655 2.44537 12.9988 2.44537C6.63222 2.44537 1.45413 7.62505 1.45413 13.9909C1.45019 16.736 2.42867 19.3918 4.21263 21.4782C4.22918 20.5916 4.24494 19.035 4.2607 18.7552C4.30169 18.0459 4.34424 17.3058 4.3868 16.5807C4.41675 16.0731 4.44591 15.5561 4.47508 15.058C4.55389 13.6654 4.63743 12.2278 4.73359 10.8091C4.55626 10.7879 4.37262 10.7658 4.19135 10.7422C4.06131 10.7298 3.93453 10.6943 3.81698 10.6373C3.69839 10.5811 3.59902 10.4912 3.53132 10.3787C3.46363 10.2663 3.43063 10.1364 3.43643 10.0053C3.44224 9.8742 3.4866 9.74772 3.56397 9.64172C3.64134 9.53571 3.74826 9.4549 3.87136 9.4094C4.00261 9.35975 4.14257 9.33723 4.28277 9.3432H4.28829C4.59093 9.3432 4.89121 9.36447 5.18204 9.38496L5.33179 9.396C5.93235 9.43698 6.48168 9.45669 7.0121 9.45669C7.40066 9.45669 7.78291 9.44565 8.14861 9.42358C8.37975 9.41152 8.60602 9.35264 8.81372 9.25048C9.02141 9.14833 9.20618 9.00505 9.35682 8.82933C9.56287 8.59861 9.75651 8.3571 9.93691 8.10581C10.0031 8.01507 10.0739 7.92774 10.1489 7.84415C10.2715 7.70482 10.4386 7.61233 10.6218 7.58248C10.6612 7.5762 10.701 7.57304 10.7408 7.57302C10.9186 7.57163 11.0901 7.63914 11.2192 7.76139C11.3471 7.88496 11.4239 8.05205 11.4344 8.22955C11.4436 8.44936 11.3761 8.66553 11.2436 8.84115C10.9621 9.25767 10.644 9.64829 10.2931 10.0084C10.1002 10.2058 9.87892 10.3734 9.63662 10.5057C9.70125 11.3317 9.73671 12.1671 9.77139 12.9765C9.78321 13.2445 9.79504 13.5219 9.80765 13.7938C9.88646 15.4245 9.9566 17.0828 10.0283 18.6858L10.1071 20.4489C10.1387 21.1448 10.1702 23.7772 10.2001 24.4621C10.2112 24.7096 10.222 24.9571 10.2325 25.2046C12.2632 25.705 14.3916 25.6451 16.391 25.0312C16.4564 22.4067 16.5053 17.7409 16.5352 15.1959L16.5415 14.6978C16.5549 13.4943 16.5699 12.2499 16.6046 11.0251C16.6093 10.8801 16.6164 10.7272 16.6267 10.5585C16.2735 10.3639 15.9688 10.092 15.7353 9.76328C15.4895 9.41163 15.2992 9.02435 15.171 8.61496C15.1232 8.48804 15.0914 8.35566 15.0764 8.22088C15.0592 8.04307 15.1007 7.8645 15.1946 7.71253C15.2615 7.6082 15.3537 7.5224 15.4625 7.46304C15.5713 7.40367 15.6933 7.37266 15.8172 7.37284C15.9659 7.37493 16.1108 7.42012 16.2344 7.50294C16.3579 7.58576 16.4548 7.70264 16.5132 7.83942C16.538 7.89656 16.5591 7.95527 16.5762 8.01517C16.5762 8.02542 16.5825 8.03645 16.5865 8.0467C16.6621 8.28041 16.7606 8.50612 16.8804 8.72056C17.0343 9.0093 17.2899 9.23063 17.5976 9.34162C18.0209 9.49925 18.4741 9.5686 18.9012 9.6222C19.2953 9.67185 19.6815 9.68289 20.0937 9.69471L20.3057 9.70022L20.8629 9.71599C21.0994 9.72229 21.3358 9.7286 21.5723 9.73648C21.6716 9.73648 21.7638 9.75066 21.8528 9.7617L21.9175 9.76958C22.0226 9.78195 22.1243 9.81462 22.2169 9.86574C22.3086 9.91086 22.3876 9.97824 22.4465 10.0617C22.5055 10.1452 22.5425 10.2421 22.5544 10.3436C22.5662 10.4452 22.5524 10.548 22.5143 10.6428C22.4761 10.7376 22.4148 10.8214 22.336 10.8864C22.1803 11.0144 21.9919 11.0963 21.7921 11.1228C21.6734 11.1455 21.5534 11.1605 21.4328 11.1677C21.5793 12.0221 21.6999 12.8875 21.8166 13.7261C21.8552 14.0043 21.8954 14.2912 21.9356 14.5733C22.0798 15.5845 22.2193 16.613 22.3541 17.6077C22.3864 17.8441 22.4187 18.0861 22.4518 18.328C22.4731 18.2933 22.4936 19.8011 22.5133 20.523ZM21.1199 22.1883C20.9291 20.4071 20.7715 17.0938 20.6281 16.0479C20.4034 14.4117 20.2025 12.9371 20.022 11.4601C20.0102 11.3656 20.0023 11.2718 19.9944 11.1796C19.8596 11.1796 19.7359 11.1725 19.6184 11.1709C19.0895 11.163 18.5622 11.1103 18.0422 11.0133C18.0256 12.7882 17.987 14.5851 17.9492 16.3261C17.9082 18.2531 17.8656 22.3334 17.8522 24.459C19.0642 23.8962 20.1697 23.128 21.1199 22.1883ZM8.70661 24.7104C8.67035 23.6196 8.63647 21.1724 8.601 20.3606C8.57578 19.7785 8.54951 19.1963 8.52218 18.6141C8.48041 17.6502 8.43628 16.6524 8.39451 15.672C8.34012 14.3897 8.28653 13.0861 8.23688 11.8258L8.21008 11.1764C8.20614 11.085 8.20457 10.9936 8.2022 10.9045C7.87197 10.9352 7.51652 10.9494 7.1256 10.9494C6.81034 10.9494 6.49509 10.94 6.19086 10.9282C6.14279 12.056 6.07816 13.1956 6.0159 14.3006C5.98831 14.7885 5.95994 15.2937 5.93708 15.7902C5.86615 17.1001 5.7897 18.4313 5.7164 19.7191L5.63759 21.1606C5.63759 21.1708 5.63759 21.1819 5.63759 21.1921C5.63759 21.2024 5.63759 22.2246 5.63759 22.8709C6.55903 23.6389 7.59444 24.2587 8.70661 24.708V24.7104Z" fill="black"/>
<path d="M20.0582 20.0422C20.0666 20.1657 20.0535 20.2897 20.0196 20.4087C19.9774 20.5478 19.8924 20.6701 19.7766 20.758C19.6608 20.8459 19.5202 20.8949 19.3749 20.8982H19.3662C19.2278 20.8978 19.0927 20.8556 18.9786 20.7771C18.8646 20.6986 18.7769 20.5875 18.727 20.4584C18.6798 20.3278 18.6574 20.1897 18.6608 20.0509C18.6506 19.3495 18.6403 18.637 18.6301 17.9474V17.6975H18.6175L18.612 17.3287L18.6025 16.6871C18.5938 16.126 18.5852 15.5459 18.5773 14.9745C18.5724 14.754 18.5816 14.5334 18.6049 14.314C18.615 14.1964 18.6456 14.0814 18.6955 13.9743C18.7388 13.8786 18.8079 13.7969 18.895 13.7383C18.9822 13.6797 19.0839 13.6465 19.1889 13.6425H19.2172C19.324 13.6414 19.4289 13.6704 19.5199 13.7262C19.6109 13.7819 19.6844 13.8622 19.7319 13.9578C19.7894 14.0748 19.826 14.2009 19.8399 14.3306C19.8861 14.7064 19.9124 15.0845 19.9187 15.4631V15.4899C19.9549 16.5721 19.988 17.6715 20.0211 18.7347C20.0343 19.1703 20.0466 19.6061 20.0582 20.0422Z" fill="black"/>
<path d="M13.4899 10.0092C13.9227 10.0073 14.3488 10.1158 14.728 10.3244C15.1752 10.5697 15.5725 10.8967 15.8992 11.2883C16.0096 11.4207 16.112 11.5579 16.2097 11.6903L16.3154 11.8321C16.4117 11.9524 16.4769 12.0945 16.5053 12.2459C16.525 12.3532 16.5211 12.4634 16.4939 12.569C16.4666 12.6745 16.4166 12.7729 16.3474 12.8572C16.2783 12.9414 16.1915 13.0096 16.0933 13.0569C15.995 13.1042 15.8877 13.1295 15.7786 13.131C15.6545 13.1298 15.5325 13.0993 15.4224 13.0419C15.2947 12.9738 15.1846 12.877 15.1008 12.759L15.0094 12.6376C14.9393 12.5446 14.8675 12.4485 14.7958 12.3547C14.6121 12.1225 14.3933 11.9204 14.1472 11.7557C13.9458 11.6109 13.704 11.5332 13.456 11.5334C13.3614 11.5338 13.2672 11.5435 13.1746 11.5626C12.6916 11.6563 12.2316 11.8438 11.8206 12.1143C11.6015 12.2601 11.4738 12.3831 11.395 12.5249C11.3396 12.6306 11.2563 12.719 11.1542 12.7805C11.052 12.8421 10.935 12.8744 10.8157 12.8741C10.7798 12.8739 10.744 12.871 10.7085 12.8654C10.575 12.8459 10.4502 12.7875 10.3497 12.6975C10.2492 12.6076 10.1775 12.4899 10.1434 12.3594C10.0833 12.1519 10.1003 11.9296 10.1915 11.7336C10.2721 11.552 10.3863 11.3873 10.528 11.2481C10.8095 10.9658 11.1357 10.732 11.4935 10.5561C12.2028 10.1936 12.8255 10.0178 13.4639 10.0044H13.4907L13.4899 10.0092Z" fill="black"/>
<path d="M7.50928 15.1392C7.57222 15.2033 7.62173 15.2794 7.65489 15.3629C7.68805 15.4464 7.70418 15.5357 7.70237 15.6255C7.69765 15.7895 7.62915 15.9453 7.51141 16.0597C7.39367 16.174 7.23598 16.2379 7.07185 16.2379C6.98884 16.2376 6.90673 16.2207 6.83039 16.1881C6.75404 16.1555 6.68502 16.1079 6.6274 16.0482C6.56978 15.9884 6.52473 15.9177 6.49494 15.8402C6.46514 15.7627 6.45121 15.6801 6.45395 15.5971C6.4642 15.2661 6.76921 14.9524 7.08447 14.9516C7.16431 14.9524 7.24316 14.9694 7.3162 15.0016C7.38925 15.0339 7.45494 15.0807 7.50928 15.1392Z" fill="black"/>
</svg>
