<svg width="26" height="27" viewBox="0 0 26 27" fill="none" xmlns="http://www.w3.org/2000/svg">
<path d="M12.9987 2.44766C19.3645 2.44766 24.5442 7.62733 24.5442 13.9932C24.5442 20.359 19.3676 25.5402 12.9987 25.5402C6.62967 25.5402 1.45316 20.3606 1.45316 13.9947C1.45316 7.62891 6.63598 2.44766 12.9987 2.44766ZM19.6104 15.6514C19.7546 15.0951 19.8094 14.5194 19.7727 13.9459C19.768 13.8544 19.753 13.577 19.5127 13.4186C19.3089 13.2701 19.0668 13.1834 18.8151 13.1688C18.0499 13.1491 17.3594 13.1294 16.6611 13.09H16.6485C15.5057 13.0237 14.3243 12.956 12.7614 12.9063C11.7282 12.8645 10.3048 12.8685 8.85697 12.9181C8.41876 12.9331 7.97503 12.9631 7.54707 12.9914L7.35792 13.004C7.08053 13.0202 6.80804 13.0842 6.55244 13.1932C6.46338 13.2318 6.19226 13.3508 6.1229 13.6409C6.10714 13.7079 6.0898 13.7741 6.07246 13.8403C6.00665 14.0674 5.96206 14.3001 5.93926 14.5354C5.86045 15.6506 6.156 16.702 6.8141 17.662C7.49506 18.655 8.4558 19.4077 9.66875 19.8987C10.5915 20.2754 11.5788 20.4687 12.5754 20.4678C13.1073 20.4658 13.6378 20.413 14.1596 20.3101C15.6318 20.0256 16.8905 19.3982 17.9017 18.447C18.7592 17.6462 19.3337 16.7052 19.6135 15.6538L19.6104 15.6514ZM19.6057 10.8225C19.7191 10.56 19.7538 10.2834 19.7633 9.94842C19.7255 9.18628 19.4197 8.51241 18.7332 8.03874C18.4418 7.8301 18.0887 7.72546 17.7307 7.74162C17.2121 7.76684 16.8109 8.02693 16.5997 8.4809C16.182 9.3778 16.3514 10.2235 16.9433 10.9951C17.1324 11.2342 17.3755 11.4252 17.6526 11.5523C18.4368 11.9314 19.266 11.6201 19.6088 10.8248L19.6057 10.8225ZM9.66638 11.0014C9.89303 10.6275 10.0198 10.2017 10.0345 9.76477C10.0289 9.165 9.88549 8.70945 9.52452 8.33982C9.31094 8.11465 9.02294 7.97459 8.71395 7.9456C8.40495 7.91661 8.09593 8.00067 7.8442 8.18219C7.65544 8.3135 7.49292 8.47896 7.36501 8.67004C7.07499 9.0946 6.92658 9.59997 6.94099 10.1139C6.93688 10.5317 7.067 10.9397 7.3122 11.278C7.7315 11.8439 8.4156 11.9873 9.02641 11.6374C9.29191 11.4853 9.51348 11.267 9.66954 11.0037L9.66638 11.0014Z" fill="#FFDE55"/>
<path d="M12.9988 0.996674C20.1662 0.996674 25.9977 6.82893 25.9977 13.9955C25.9977 21.1621 20.1709 26.9943 12.9988 26.9943C5.82674 26.9943 0 21.1621 0 13.9955C0 6.82893 5.83462 0.996674 12.9988 0.996674ZM24.5443 13.9955C24.5443 7.62968 19.3647 2.45001 12.9988 2.45001C6.63301 2.45001 1.45333 7.62968 1.45333 13.9955C1.45333 20.3613 6.63616 25.5402 12.9988 25.5402C19.3615 25.5402 24.5475 20.3613 24.5475 13.9955H24.5443Z" fill="black"/>
<path d="M19.7767 13.9482C19.8134 14.5217 19.7586 15.0974 19.6143 15.6537C19.3346 16.7051 18.76 17.6462 17.9057 18.4501C16.8945 19.4014 15.6358 20.0264 14.1636 20.3132C13.6417 20.4162 13.1113 20.4689 12.5794 20.4709C11.5827 20.4718 10.5955 20.2785 9.67272 19.9018C8.45977 19.4108 7.49902 18.6581 6.81807 17.6651C6.15997 16.7051 5.8652 15.6537 5.94323 14.5385C5.96603 14.3032 6.01062 14.0705 6.07642 13.8434C6.09376 13.7772 6.1111 13.711 6.12687 13.644C6.19622 13.3524 6.46735 13.2349 6.55641 13.1963C6.812 13.0873 7.0845 13.0234 7.36188 13.0072L7.55104 12.9945C7.979 12.9662 8.42273 12.9362 8.86093 12.9212C10.3088 12.8716 11.7321 12.8677 12.7654 12.9094C14.3283 12.9591 15.5097 13.0269 16.6525 13.0931H16.6651C17.3634 13.1333 18.0538 13.153 18.8191 13.1719C19.0708 13.1865 19.3129 13.2732 19.5166 13.4217C19.7562 13.5793 19.7712 13.8568 19.7767 13.9482ZM17.8789 15.1627C17.9566 14.8851 17.9833 14.5956 17.9577 14.3084L17.5715 14.295C17.3279 14.2879 17.0757 14.2792 16.8275 14.2682C15.8975 14.224 14.9675 14.1786 14.0375 14.1318L13.02 14.0822C11.6234 14.0365 10.2039 14.0388 8.80103 14.0877C8.54489 14.0964 8.28401 14.1113 8.03102 14.1255C7.99338 14.4089 8.007 14.6966 8.07121 14.9751C8.08776 15.054 8.10668 15.0587 8.15791 15.0634L8.21623 15.0705C8.23988 15.0705 8.26352 15.0768 8.28716 15.0776L8.36598 15.0823C8.6568 15.0973 8.95787 15.1123 9.25028 15.1044C9.52691 15.0957 9.80671 15.0918 10.0944 15.0918C10.5263 15.0918 10.9732 15.1013 11.4445 15.1194C11.8677 15.1359 12.2964 15.1604 12.7118 15.184L13.3597 15.2195C14.2038 15.2628 15.066 15.2565 15.899 15.2502L16.6336 15.2455C17.0458 15.2455 17.4485 15.2289 17.8292 15.2006C17.8404 15.1997 17.8515 15.1979 17.8623 15.195C17.8623 15.195 17.871 15.1832 17.8781 15.1627H17.8789ZM17.8276 16.8178L17.8371 16.8044C17.8237 16.7831 17.8024 16.7776 17.7583 16.7761C17.3776 16.7611 16.9867 16.7808 16.6092 16.7997L16.513 16.8044C16.3483 16.8123 16.1836 16.8241 16.0188 16.8352C15.5557 16.8787 15.09 16.8882 14.6254 16.8635C13.8282 16.7949 13.0279 16.7686 12.2279 16.7847H12.2105C11.9047 16.7792 11.6841 16.7737 11.4602 16.7587C10.866 16.7209 10.1992 16.6854 9.50327 16.6854C9.17934 16.6854 8.84911 16.6933 8.51967 16.7114C8.42997 16.7165 8.34071 16.7275 8.25249 16.7445C8.09486 16.7761 8.07831 16.7895 8.05703 16.9518C8.0523 16.992 8.04993 17.0306 8.04678 17.074C8.04355 17.1571 8.03353 17.2399 8.01683 17.3214C8.01131 17.3459 8.00974 17.3522 8.04678 17.394C8.50002 17.9041 9.0493 18.32 9.66326 18.6179C11.0283 19.2831 12.514 19.4581 14.0769 19.1373C15.1382 18.9239 16.1289 18.4475 16.9583 17.7518C17.2869 17.4805 17.5789 17.1676 17.8268 16.821L17.8276 16.8178Z" fill="black"/>
<path d="M19.7674 9.95078C19.7572 10.2857 19.7225 10.5624 19.6098 10.8248C19.267 11.6201 18.4363 11.9282 17.6568 11.5547C17.3797 11.4275 17.1366 11.2366 16.9475 10.9974C16.3556 10.2258 16.1861 9.38016 16.6038 8.48326C16.8151 8.02929 17.2162 7.7692 17.7348 7.74398C18.0929 7.72783 18.4459 7.83247 18.7373 8.04111C19.4238 8.51636 19.7296 9.18865 19.7674 9.95078Z" fill="black"/>
<path d="M10.0377 9.76713C10.023 10.2041 9.89624 10.6299 9.66959 11.0037C9.51398 11.2654 9.29357 11.4825 9.02962 11.6342C8.41881 11.9826 7.7347 11.8407 7.31541 11.2748C7.07021 10.9366 6.94008 10.5285 6.9442 10.1108C6.92978 9.5968 7.07819 9.09144 7.36822 8.66689C7.49612 8.47581 7.65865 8.31033 7.84741 8.17902C8.09914 7.99751 8.40816 7.91345 8.71716 7.94244C9.02615 7.97142 9.31415 8.11149 9.52773 8.33665C9.8887 8.71181 10.0321 9.16736 10.0377 9.76713Z" fill="black"/>
</svg>
