<svg width="26" height="26" viewBox="0 0 26 26" fill="none" xmlns="http://www.w3.org/2000/svg">
<path d="M23.7822 7.54315C23.8137 7.7725 23.7822 8.01603 23.6687 8.33917C23.4537 8.98663 23.0287 9.54385 22.4613 9.92256C21.9713 10.2472 21.4455 10.5143 20.8944 10.7186L20.6005 10.8305C20.4625 10.8825 20.3238 10.9345 20.1867 10.9881C20.1089 11.0169 20.0333 11.0515 19.9605 11.0914C19.724 10.8455 19.4789 10.6011 19.2425 10.3647C18.7964 9.91861 18.3353 9.45676 17.9121 8.98072C17.6461 8.69401 17.4031 8.38673 17.1854 8.06175C16.9836 7.76641 16.8712 7.41918 16.8615 7.06159C16.9001 6.65334 17.068 6.33414 17.3604 6.11582C17.4909 6.01319 17.6523 5.95765 17.8183 5.95819C17.9128 5.95919 18.0066 5.97434 18.0965 6.00312C18.5486 6.14399 18.9443 6.42463 19.2267 6.80466C19.2385 6.81963 19.2519 6.83934 19.2661 6.86062C19.2803 6.8819 19.3126 6.9284 19.3449 6.96623C19.3962 7.03735 19.4616 7.09714 19.537 7.14189C19.6124 7.18664 19.6962 7.21537 19.7832 7.22631C19.8683 7.23505 19.9537 7.23953 20.0393 7.23972C20.1721 7.24126 20.3045 7.2259 20.4334 7.19401C20.5419 7.16334 20.6432 7.11137 20.7314 7.04114C20.8197 6.97091 20.893 6.88383 20.9472 6.78496C21.0465 6.62181 21.2018 6.50201 21.4524 6.39088C21.7013 6.27666 21.9708 6.21393 22.2445 6.20646C22.3701 6.20621 22.4952 6.22264 22.6165 6.25533C23.1887 6.40744 23.7034 6.97411 23.7822 7.54315Z" fill="#D96A3E"/>
<path d="M9.10936 7.05998C9.0991 7.41746 8.98669 7.76452 8.78543 8.06014C8.5671 8.38487 8.32417 8.69236 8.05876 8.97989C7.63553 9.45278 7.17368 9.917 6.72838 10.3631C6.49194 10.5995 6.24761 10.8439 6.00959 11.0905C5.93699 11.0503 5.86136 11.0158 5.7834 10.9873C5.64626 10.9329 5.50755 10.8809 5.36962 10.8297L5.07565 10.7178C4.52455 10.5134 3.99881 10.2463 3.50882 9.92173C2.94134 9.54302 2.51643 8.98582 2.30139 8.33836C2.19105 8.01679 2.15637 7.77167 2.18789 7.54232C2.26671 6.97328 2.78136 6.40661 3.35907 6.25214C3.48009 6.2194 3.60493 6.20297 3.73029 6.20327C4.00414 6.21066 4.27363 6.27367 4.52237 6.38848C4.773 6.49488 4.92905 6.61547 5.02757 6.77783C5.08178 6.87679 5.15513 6.96399 5.24335 7.03435C5.33157 7.10471 5.43289 7.15682 5.54144 7.18766C5.67038 7.21917 5.80278 7.23427 5.93551 7.23259C6.01432 7.23259 6.09314 7.22864 6.19087 7.21919C6.27794 7.20817 6.36183 7.1794 6.43734 7.13467C6.51285 7.08993 6.57837 7.03018 6.62986 6.95911C6.65981 6.92128 6.68425 6.8858 6.70868 6.85349L6.74887 6.79753C7.03106 6.4176 7.42649 6.13696 7.87828 5.99599C7.96826 5.9672 8.06203 5.95207 8.1565 5.95107C8.32253 5.95052 8.48389 6.00607 8.61441 6.1087C8.90208 6.33411 9.06995 6.64936 9.10936 7.05998Z" fill="#D96A3E"/>
<path d="M24.2512 10.4112C24.4444 11.259 24.5417 12.1259 24.5412 12.9955C24.5412 19.3613 19.3623 24.541 12.9957 24.541C6.62909 24.541 1.45099 19.3613 1.45099 12.9955C1.45038 12.1345 1.54581 11.2762 1.73551 10.4364C2.01544 10.7532 2.33735 11.0303 2.69232 11.26C3.44848 11.7497 4.27544 12.1203 5.14423 12.3587L5.16708 12.365C5.234 12.3855 5.30256 12.4003 5.372 12.4091C5.41141 12.4138 5.41298 12.4154 5.42717 12.4343C5.49948 12.5297 5.59307 12.6069 5.70048 12.6597C5.8079 12.7125 5.92617 12.7395 6.04586 12.7385C6.16586 12.7382 6.28448 12.713 6.39422 12.6645C6.49718 12.6168 6.59359 12.5562 6.68111 12.484L6.70554 12.4658C6.95332 12.2692 7.1879 12.0565 7.40777 11.829L7.50393 11.7337L7.70254 11.539C8.30389 10.9471 8.92652 10.3355 9.49083 9.67582C9.77723 9.35531 10.0295 9.00586 10.2435 8.63311C10.5966 7.98762 10.7243 7.37207 10.6336 6.76284C10.502 5.87382 10.0819 5.19838 9.38916 4.75308C9.02393 4.51559 8.59767 4.38911 8.16202 4.38896C7.92897 4.39046 7.69712 4.42253 7.4724 4.48433C6.91282 4.63644 6.39974 4.94539 5.90951 5.4301C5.59927 5.15714 5.23557 4.9518 4.84158 4.82717C7.00488 2.66812 9.93606 1.45501 12.9924 1.45383C16.0488 1.45265 18.9809 2.66349 21.1459 4.82087C20.7431 4.94496 20.3714 5.15316 20.0551 5.43168C19.5641 4.95012 19.051 4.64353 18.4914 4.48591C18.2671 4.42353 18.0354 4.39119 17.8026 4.38974C17.3665 4.38966 16.9399 4.51645 16.5747 4.75466C15.8803 5.19917 15.4618 5.87539 15.331 6.76442C15.2403 7.37759 15.3672 7.9892 15.7203 8.6339C15.9341 9.00702 16.1864 9.35675 16.473 9.6774C17.0373 10.3371 17.6599 10.9487 18.2621 11.5406L18.4599 11.7352L18.556 11.8306C18.7763 12.0576 19.0109 12.2703 19.2583 12.4674L19.2827 12.4856C19.3702 12.5577 19.4666 12.6184 19.5696 12.666C19.6794 12.7142 19.798 12.7391 19.918 12.7393C20.0378 12.7405 20.1562 12.7136 20.2638 12.6608C20.3714 12.6079 20.4651 12.5307 20.5374 12.4351C20.5516 12.417 20.5524 12.4154 20.5926 12.4107C20.6617 12.4014 20.73 12.3866 20.7967 12.3665L20.8196 12.3602C21.6884 12.122 22.5154 11.7514 23.2715 11.2616C23.6363 11.0255 23.9661 10.7392 24.2512 10.4112ZM17.8042 17.3744C17.9618 16.1922 17.9318 14.9974 17.8901 13.9688C17.8878 13.8947 17.8777 13.821 17.8601 13.7489C17.8341 13.6194 17.768 13.5014 17.6713 13.4115C17.5746 13.3215 17.4521 13.2642 17.321 13.2477H17.2911L17.254 13.2437C17.1011 13.1564 16.9262 13.115 16.7504 13.1247C15.6281 13.11 14.5058 13.094 13.3835 13.0767L12.708 13.0672H12.4921L12.0263 13.0609C11.5009 13.053 10.9733 13.0459 10.4437 13.0396C10.1781 13.0396 9.91328 13.0396 9.64767 13.0341C9.30956 13.0341 8.95963 13.0341 8.61678 13.0262C8.21089 13.0191 7.9114 13.2225 7.74983 13.611C7.67283 13.7963 7.61986 13.9908 7.5922 14.1895C7.37215 15.6444 7.51316 17.1312 8.00282 18.5188C8.53876 20.0336 9.53261 21.1504 10.9568 21.8392C11.7284 22.212 12.3865 22.3862 13.0264 22.3862H13.0422C14.4254 22.3799 15.58 21.8542 16.4738 20.8233C16.8713 20.3543 17.1771 19.8148 17.3754 19.2328C17.5852 18.6305 17.73 18.0075 17.8073 17.3744H17.8042Z" fill="#FFDE55"/>
<path d="M25.23 8.58425C25.7407 9.99961 26.0008 11.4932 25.9985 12.9978C25.9985 20.1652 20.1662 25.9967 12.9988 25.9967C5.83147 25.9967 3.81579e-06 20.1644 3.81579e-06 12.9978C-0.00109247 11.5667 0.234045 10.1453 0.695934 8.79074L0.812578 8.83094C0.696402 8.48067 0.631884 8.11533 0.621059 7.74646V7.73542C0.621059 7.71256 0.621059 7.68971 0.621059 7.66685C0.618167 7.59643 0.619483 7.52589 0.625 7.45563C0.691151 6.73657 1.01901 6.06683 1.54634 5.57354C1.94096 5.17425 2.4321 4.88375 2.97209 4.73023C4.19254 3.24972 5.72562 2.05776 7.46128 1.23992C9.19695 0.422083 11.0922 -0.00135294 13.0109 3.24742e-06C14.9296 0.00135943 16.8242 0.427481 18.5587 1.24777C20.2932 2.06807 21.8246 3.26218 23.0429 4.74441C23.5671 4.90124 24.0435 5.18715 24.4285 5.57591C24.9563 6.06884 25.2842 6.73878 25.3498 7.45799C25.3553 7.52826 25.3567 7.59879 25.3538 7.66921C25.3538 7.69207 25.3538 7.71493 25.3538 7.73779V7.74881C25.3443 8.03108 25.3028 8.31136 25.23 8.58425ZM24.5443 12.9978C24.5448 12.1283 24.4475 11.2614 24.2543 10.4135C23.9693 10.7416 23.6395 11.0278 23.2746 11.2639C22.5186 11.7538 21.6916 12.1244 20.8227 12.3626L20.7999 12.3689C20.7331 12.389 20.6648 12.4038 20.5957 12.413C20.5555 12.4178 20.5548 12.4193 20.5406 12.4375C20.4682 12.533 20.3745 12.6103 20.2669 12.6631C20.1594 12.716 20.0409 12.7429 19.9211 12.7417C19.8012 12.7415 19.6826 12.7165 19.5727 12.6684C19.4698 12.6208 19.3734 12.5601 19.2858 12.4879L19.2614 12.4698C19.014 12.2727 18.7794 12.06 18.5592 11.833L18.463 11.7376L18.2652 11.5429C17.6631 10.951 17.0404 10.3394 16.4761 9.67976C16.1895 9.35911 15.9373 9.00938 15.7234 8.63626C15.3704 7.99156 15.2435 7.37997 15.3341 6.76679C15.4649 5.87777 15.8858 5.20154 16.5778 4.75703C16.943 4.51882 17.3697 4.39203 17.8057 4.39212C18.0386 4.39356 18.2702 4.42589 18.4946 4.48827C19.0541 4.64038 19.5672 4.94854 20.0582 5.43404C20.3745 5.15552 20.7463 4.94733 21.149 4.82323C18.984 2.66585 16.0519 1.45501 12.9956 1.45619C9.9392 1.45737 7.00802 2.67049 4.84471 4.82954C5.2387 4.95417 5.6024 5.15951 5.91265 5.43247C6.40287 4.9517 6.91595 4.64433 7.47553 4.4867C7.70025 4.4249 7.9321 4.39283 8.16516 4.39133C8.60081 4.39148 9.02707 4.51796 9.3923 4.75545C10.0866 5.20075 10.5052 5.87619 10.6368 6.76521C10.7274 7.37839 10.5997 7.98998 10.2466 8.63547C10.0326 9.00822 9.78036 9.35768 9.49397 9.67819C8.92966 10.3379 8.30702 10.9495 7.70567 11.5414L7.50706 11.736L7.41091 11.8314C7.19104 12.0588 6.95645 12.2716 6.70867 12.4682L6.68424 12.4863C6.59673 12.5585 6.50031 12.6192 6.39736 12.6668C6.28761 12.7154 6.16899 12.7406 6.049 12.7409C5.9293 12.7419 5.81103 12.7149 5.70362 12.6621C5.5962 12.6093 5.50261 12.5321 5.43031 12.4367C5.41612 12.4178 5.41454 12.4162 5.37513 12.4115C5.30569 12.4026 5.23713 12.3879 5.17022 12.3673L5.14736 12.361C4.27858 12.1226 3.45161 11.7521 2.69545 11.2624C2.34049 11.0327 2.01857 10.7556 1.73864 10.4387C1.54894 11.2785 1.45351 12.1369 1.45413 12.9978C1.45413 19.3637 6.63301 24.5433 12.9988 24.5433C19.3647 24.5433 24.5443 19.3613 24.5443 12.9955V12.9978ZM23.6687 8.3415C23.779 8.01994 23.8137 7.77482 23.7822 7.54548C23.7034 6.97644 23.1887 6.40976 22.6118 6.25529C22.4905 6.2226 22.3654 6.20617 22.2398 6.20642C21.966 6.21389 21.6966 6.27662 21.4477 6.39084C21.1971 6.49803 21.0418 6.61783 20.9425 6.78492C20.8883 6.88379 20.8149 6.97087 20.7267 7.0411C20.6385 7.11133 20.5372 7.1633 20.4287 7.19397C20.2998 7.22586 20.1673 7.24122 20.0346 7.23968C19.949 7.23949 19.8635 7.23501 19.7784 7.22627C19.6915 7.21533 19.6076 7.1866 19.5323 7.14185C19.4569 7.0971 19.3915 7.03731 19.3402 6.96619C19.3095 6.92836 19.2851 6.89211 19.2614 6.86058C19.2378 6.82906 19.2338 6.81959 19.222 6.80462C18.9396 6.42459 18.5439 6.14395 18.0918 6.00309C18.0018 5.9743 17.9081 5.95915 17.8136 5.95816C17.6476 5.95761 17.4862 6.01315 17.3557 6.11578C17.0633 6.33646 16.8954 6.65566 16.8568 7.06155C16.8664 7.41914 16.9789 7.76637 17.1807 8.06171C17.3984 8.38669 17.6413 8.69397 17.9074 8.98068C18.3306 9.45356 18.7917 9.91857 19.2378 10.3647C19.4742 10.6011 19.7177 10.8454 19.9558 11.0913C20.0285 11.0514 20.1041 11.0169 20.182 10.9881C20.3191 10.9345 20.4578 10.8825 20.5957 10.8305L20.8897 10.7185C21.4408 10.5142 21.9666 10.2471 22.4565 9.92252C23.0258 9.54459 23.4524 8.98728 23.6687 8.33913V8.3415ZM8.78543 8.0625C8.98669 7.76689 9.09909 7.41982 9.10935 7.06234C9.06995 6.65409 8.90207 6.33489 8.60967 6.11657C8.47915 6.01394 8.3178 5.9584 8.15176 5.95894C8.0573 5.95994 7.96352 5.97509 7.87355 6.00387C7.42176 6.14484 7.02633 6.42547 6.74414 6.80541L6.70394 6.86136C6.68187 6.89368 6.65744 6.92915 6.62513 6.96698C6.57364 7.03806 6.50811 7.09781 6.4326 7.14254C6.35709 7.18728 6.27321 7.21604 6.18613 7.22706C6.08998 7.23652 6.0088 7.24046 5.93077 7.24046C5.79805 7.24214 5.66564 7.22705 5.5367 7.19554C5.42816 7.1647 5.32683 7.11258 5.23861 7.04223C5.1504 6.97187 5.07705 6.88467 5.02283 6.78571C4.92432 6.62335 4.76826 6.50277 4.51764 6.39637C4.2689 6.28156 3.99941 6.21853 3.72555 6.21115C3.60019 6.21084 3.47535 6.22728 3.35434 6.26002C2.77663 6.41765 2.26197 6.98117 2.18316 7.55021C2.15163 7.77956 2.18316 8.02309 2.29665 8.34623C2.51169 8.99369 2.93661 9.5509 3.50409 9.92961C3.99407 10.2542 4.51981 10.5213 5.07091 10.7256L5.36489 10.8375C5.50281 10.8896 5.64153 10.9416 5.77866 10.9952C5.85663 11.0237 5.93225 11.0582 6.00486 11.0984C6.2413 10.8517 6.48641 10.6082 6.72364 10.371C7.16895 9.92488 7.6308 9.46303 8.05403 8.98778C8.32139 8.69789 8.56592 8.38775 8.78543 8.06013V8.0625Z" fill="black"/>
<path d="M17.8932 13.9689C17.935 14.9974 17.9657 16.1938 17.8073 17.3744C17.7298 18.0065 17.585 18.6284 17.3754 19.2297C17.1771 19.8117 16.8713 20.3512 16.4738 20.8202C15.58 21.8511 14.4246 22.3768 13.0422 22.3831H13.0264C12.3865 22.3831 11.7284 22.2089 10.9568 21.8361C9.53261 21.1473 8.53877 20.0305 8.00283 18.5157C7.51317 17.128 7.37216 15.6413 7.59221 14.1864C7.61987 13.9876 7.67284 13.7932 7.74984 13.6079C7.91298 13.2193 8.21247 13.016 8.61679 13.0231C8.95963 13.0286 9.30957 13.0302 9.64768 13.031C9.91329 13.031 10.1781 13.031 10.4437 13.0365C10.9691 13.0423 11.4967 13.0494 12.0263 13.0578L12.4921 13.0641H12.7112L13.3866 13.0735C14.5089 13.0904 15.6313 13.1064 16.7536 13.1216C16.9294 13.1119 17.1043 13.1532 17.2572 13.2406L17.2942 13.2446H17.3242C17.4552 13.2611 17.5778 13.3184 17.6745 13.4084C17.7712 13.4983 17.8372 13.6163 17.8633 13.7458C17.8811 13.8189 17.8911 13.8937 17.8932 13.9689ZM16.2744 15.0179C16.2891 14.8399 16.293 14.6612 16.2862 14.4827V14.3819L9.89673 14.2944H9.69418C9.73438 14.452 9.78009 14.6018 9.81713 14.7208C9.83132 14.7665 9.83999 14.7673 9.86915 14.7704L9.98501 14.7838C10.0914 14.7972 10.1923 14.809 10.2916 14.813C10.5682 14.8256 10.8433 14.835 11.1207 14.8453C11.6677 14.865 12.2336 14.8855 12.7908 14.9241C13.1399 14.947 13.5001 14.9635 13.8422 14.9801L14.3151 15.0029L14.7139 15.0226C15.115 15.0439 15.5304 15.0652 15.9355 15.0589C16.0472 15.0582 16.1587 15.0487 16.2689 15.0305H16.2744C16.2752 15.0263 16.2752 15.0221 16.2744 15.0179ZM15.7913 19.6459C15.5301 19.5134 15.2569 19.406 14.9755 19.3251C14.3521 19.1468 13.7064 19.0587 13.058 19.0634C11.9333 19.0705 10.9757 19.2802 10.1308 19.7034C10.7062 20.3142 11.4171 20.7422 12.3029 21.0109C13.564 21.3947 15.078 20.7958 15.7913 19.6459Z" fill="black"/>
</svg>
